<svg id="sound-wave-3" xmlns="http://www.w3.org/2000/svg" width="398.877" height="94.718" viewBox="0 0 398.877 94.718">
  <path id="Path_347" data-name="Path 347" d="M.463,0C.644,3.92.644,7.9.644,11.824L.826,23.647V70.942L.644,82.766c0,3.92-.181,7.9-.181,11.824-.181-3.92-.181-7.9-.181-11.824L.1,70.942V23.647L.281,11.824C.281,7.9.281,3.92.463,0Z" transform="translate(-0.1 0.129)" fill="#fbfbfb"/>
  <path id="Path_348" data-name="Path 348" d="M1.163,7.5c.181,3.534.181,7.068.181,10.6l.181,10.6V71.116l-.181,10.6c0,3.534-.181,7.068-.181,10.6-.181-3.534-.181-7.068-.181-10.6L.8,71.116V28.705L.981,18.1C.981,14.568,1.163,11.034,1.163,7.5Z" transform="translate(0.47 -2.552)" fill="#fbfbfb"/>
  <path id="Path_349" data-name="Path 349" d="M1.963,13.5c.181,3.213.181,6.426.181,9.639l.181,9.639V71.333l-.181,9.639c0,3.213-.181,6.426-.181,9.639-.181-3.213-.181-6.426-.181-9.639L1.6,71.333V32.778l.181-9.639C1.781,19.862,1.781,16.713,1.963,13.5Z" transform="translate(1.122 -4.697)" fill="#fbfbfb"/>
  <path id="Path_350" data-name="Path 350" d="M2.844,19.1c.181,2.892.181,5.783.181,8.739l.181,8.739c0,5.783.181,11.631.181,17.414s0,11.631-.181,17.414l-.181,8.675c0,2.892-.181,5.783-.181,8.739-.181-2.892-.181-5.783-.181-8.739l-.181-8.739c0-5.783-.181-11.631-.181-17.414s0-11.631.181-17.414l.181-8.739C2.663,24.883,2.663,21.992,2.844,19.1Z" transform="translate(1.692 -6.698)" fill="#fbfbfb"/>
  <path id="Path_351" data-name="Path 351" d="M3.463,15.6c.181,3.084.181,6.169.181,9.253l.181,9.253V71.12l-.181,9.253c0,3.084-.181,6.169-.181,9.253-.181-3.084-.181-6.169-.181-9.253L3.1,71.12V34.107l.181-9.253C3.281,21.769,3.463,18.684,3.463,15.6Z" transform="translate(2.344 -5.447)" fill="#fbfbfb"/>
  <path id="Path_352" data-name="Path 352" d="M4.263,12.3c.181,3.277.181,6.554.181,9.832l.181,9.832V71.29l-.181,9.832c0,3.277-.181,6.554-.181,9.832-.181-3.47-.181-6.747-.181-10.024L3.9,71.1V31.77l.181-9.7C4.081,18.79,4.081,15.577,4.263,12.3Z" transform="translate(2.996 -4.268)" fill="#fbfbfb"/>
  <path id="Path_353" data-name="Path 353" d="M5.063,14.8c.181,3.149.181,6.3.181,9.382l.181,9.382V71.091L5.244,80.6c0,3.149-.181,6.3-.181,9.382-.181-3.149-.181-6.3-.181-9.382L4.7,71.219V33.692l.181-9.382C4.881,21.033,4.881,17.949,5.063,14.8Z" transform="translate(3.648 -5.161)" fill="#fbfbfb"/>
  <path id="Path_354" data-name="Path 354" d="M5.844,19.7c.181,2.892.181,5.719.181,8.611l.181,8.611c0,5.719.181,11.5.181,17.221s0,11.5-.181,17.221l-.181,8.611c0,2.892-.181,5.719-.181,8.611-.181-2.892-.181-5.719-.181-8.611l-.181-8.611c0-5.719-.181-11.5-.181-17.221s0-11.5.181-17.221l.181-8.611C5.663,25.419,5.844,22.592,5.844,19.7Z" transform="translate(4.137 -6.912)" fill="#fbfbfb"/>
  <path id="Path_355" data-name="Path 355" d="M6.644,26.3c.181,2.506.181,5.012.181,7.583l.181,7.583c0,5.012.181,10.089.181,15.1s0,10.089-.181,15.1l-.181,7.583c0,2.506-.181,5.012-.181,7.583-.181-2.506-.181-5.012-.181-7.583L6.281,71.6c0-5.012-.181-10.089-.181-15.1s0-10.089.181-15.1l.181-7.583C6.463,31.312,6.463,28.806,6.644,26.3Z" transform="translate(4.788 -9.271)" fill="#fbfbfb"/>
  <path id="Path_356" data-name="Path 356" d="M7.363,33.3c.181,4.305.363,8.546.363,12.852v25.7c0,4.305-.181,8.546-.363,12.852C7.181,80.4,7,76.161,7,71.855v-25.7C7,41.911,7.181,37.605,7.363,33.3Z" transform="translate(5.522 -11.773)" fill="#fbfbfb"/>
  <path id="Path_357" data-name="Path 357" d="M8.063,39c.181,3.663.363,7.326.363,10.988V72.093c0,3.663-.181,7.326-.363,11.053C7.881,79.483,7.7,75.82,7.7,72.093V49.988C7.881,46.326,7.881,42.663,8.063,39Z" transform="translate(6.092 -13.81)" fill="#fbfbfb"/>
  <path id="Path_358" data-name="Path 358" d="M8.863,44.8c.181,3.02.363,6.1.363,9.125v18.25c0,3.02-.181,6.1-.363,9.125-.181-2.956-.363-5.976-.363-9.061V53.989C8.5,50.9,8.681,47.884,8.863,44.8Z" transform="translate(6.744 -15.883)" fill="#fbfbfb"/>
  <path id="Path_359" data-name="Path 359" d="M9.663,41.6c.181,3.406.363,6.811.363,10.217V72.123c0,3.406-.181,6.811-.363,10.217C9.481,78.934,9.3,75.529,9.3,72.123V51.817C9.3,48.411,9.481,45.006,9.663,41.6Z" transform="translate(7.395 -14.74)" fill="#fbfbfb"/>
  <path id="Path_360" data-name="Path 360" d="M10.363,37.8c.181,3.791.363,7.583.363,11.438V72.114c0,3.791-.181,7.583-.363,11.438C10.181,79.761,10,75.97,10,72.114V49.238C10.181,45.383,10.181,41.591,10.363,37.8Z" transform="translate(7.966 -13.382)" fill="#fbfbfb"/>
  <path id="Path_361" data-name="Path 361" d="M11.163,33.3c.181,4.305.363,8.546.363,12.852v25.7c0,4.305-.181,8.546-.363,12.852-.181-4.305-.363-8.546-.363-12.852v-25.7C10.8,41.911,10.981,37.605,11.163,33.3Z" transform="translate(8.618 -11.773)" fill="#fbfbfb"/>
  <path id="Path_362" data-name="Path 362" d="M11.963,35.6c.181,4.048.363,8.1.363,12.081V71.842c0,4.048-.181,8.1-.363,12.081-.181-4.048-.363-8.1-.363-12.081V47.681C11.6,43.7,11.781,39.648,11.963,35.6Z" transform="translate(9.269 -12.595)" fill="#fbfbfb"/>
  <path id="Path_363" data-name="Path 363" d="M12.663,39.9c.181,3.6.363,7.133.363,10.731V71.965c0,3.6-.181,7.133-.363,10.731-.181-3.6-.363-7.133-.363-10.731V50.631C12.481,47.1,12.481,43.5,12.663,39.9Z" transform="translate(9.84 -14.132)" fill="#fbfbfb"/>
  <path id="Path_364" data-name="Path 364" d="M13.463,42.9c.181,3.277.363,6.49.363,9.767V72.2c0,3.277-.181,6.49-.363,9.767-.181-3.277-.363-6.49-.363-9.767V52.667C13.1,49.454,13.281,46.177,13.463,42.9Z" transform="translate(10.491 -15.204)" fill="#fbfbfb"/>
  <path id="Path_365" data-name="Path 365" d="M14.263,47.1c.181,2.827.363,5.591.363,8.418V72.482c0,2.827-.181,5.59-.363,8.418-.181-2.827-.363-5.591-.363-8.418V55.518C13.9,52.691,14.081,49.927,14.263,47.1Z" transform="translate(11.143 -16.705)" fill="#fbfbfb"/>
  <path id="Path_366" data-name="Path 366" d="M14.963,51.6c.181,2.313.363,4.627.363,7v13.88c0,2.313-.181,4.627-.363,7-.181-2.313-.363-4.627-.363-7V58.6C14.781,56.227,14.781,53.913,14.963,51.6Z" transform="translate(11.714 -18.314)" fill="#fbfbfb"/>
  <path id="Path_367" data-name="Path 367" d="M15.763,58a45.367,45.367,0,0,1,.363,4.948v9.767a45.367,45.367,0,0,1-.363,4.948,45.366,45.366,0,0,1-.363-4.948V62.948A44.216,44.216,0,0,1,15.763,58Z" transform="translate(12.365 -20.601)" fill="#fbfbfb"/>
  <path id="Path_368" data-name="Path 368" d="M16.563,63.1a20.125,20.125,0,0,1,.363,3.277V72.8a20.125,20.125,0,0,1-.363,3.277A20.125,20.125,0,0,1,16.2,72.8V66.377A20.126,20.126,0,0,1,16.563,63.1Z" transform="translate(13.017 -22.424)" fill="#fbfbfb"/>
  <path id="Path_369" data-name="Path 369" d="M17.344,66.4a9.689,9.689,0,0,1,.363,2.249c0,.771.181,1.478.181,2.249a9.416,9.416,0,0,1-.181,2.249,9.689,9.689,0,0,1-.363,2.249c-.181-.835-.181-1.542-.363-2.313,0-.771-.181-1.478-.181-2.249a9.415,9.415,0,0,1,.181-2.249C17.163,67.878,17.163,67.107,17.344,66.4Z" transform="translate(13.506 -23.604)" fill="#fbfbfb"/>
  <path id="Path_370" data-name="Path 370" d="M18.144,68.8a4.071,4.071,0,0,1,.363,1.414c0,.45.181.964.181,1.414a3.8,3.8,0,0,1-.181,1.414,4.071,4.071,0,0,1-.363,1.414,4.071,4.071,0,0,1-.363-1.414c0-.45-.181-.964-.181-1.414a3.8,3.8,0,0,1,.181-1.414A4.46,4.46,0,0,1,18.144,68.8Z" transform="translate(14.158 -24.461)" fill="#fbfbfb"/>
  <path id="Path_371" data-name="Path 371" d="M18.944,66.4a9.689,9.689,0,0,1,.363,2.249c0,.771.181,1.478.181,2.249a9.416,9.416,0,0,1-.181,2.249,9.689,9.689,0,0,1-.363,2.249,9.689,9.689,0,0,1-.363-2.249c0-.771-.181-1.478-.181-2.249a9.416,9.416,0,0,1,.181-2.249A9.169,9.169,0,0,1,18.944,66.4Z" transform="translate(14.809 -23.604)" fill="#fbfbfb"/>
  <path id="Path_372" data-name="Path 372" d="M19.563,62.1a24.183,24.183,0,0,1,.363,3.6v7.2a24.184,24.184,0,0,1-.363,3.6,24.182,24.182,0,0,1-.363-3.6V65.7C19.381,64.478,19.381,63.257,19.563,62.1Z" transform="translate(15.461 -22.067)" fill="#fbfbfb"/>
  <path id="Path_373" data-name="Path 373" d="M20.363,59.2a37.561,37.561,0,0,1,.363,4.5v9a37.561,37.561,0,0,1-.363,4.5,37.561,37.561,0,0,1-.363-4.5v-9A38.657,38.657,0,0,1,20.363,59.2Z" transform="translate(16.113 -21.03)" fill="#fbfbfb"/>
  <path id="Path_374" data-name="Path 374" d="M21.163,62.1a24.183,24.183,0,0,1,.363,3.6v7.2a24.183,24.183,0,0,1-.363,3.6,24.182,24.182,0,0,1-.363-3.6V65.7A23.349,23.349,0,0,1,21.163,62.1Z" transform="translate(16.765 -22.067)" fill="#fbfbfb"/>
  <path id="Path_375" data-name="Path 375" d="M21.944,66.4a9.689,9.689,0,0,1,.363,2.249c0,.771.181,1.478.181,2.249a9.416,9.416,0,0,1-.181,2.249,9.689,9.689,0,0,1-.363,2.249,9.689,9.689,0,0,1-.363-2.249c0-.771-.181-1.478-.181-2.249a9.416,9.416,0,0,1,.181-2.249C21.763,67.878,21.763,67.107,21.944,66.4Z" transform="translate(17.254 -23.604)" fill="#fbfbfb"/>
  <path id="Path_376" data-name="Path 376" d="M22.744,68.8a4.07,4.07,0,0,1,.363,1.414c0,.45.181.964.181,1.414a3.8,3.8,0,0,1-.181,1.414,4.071,4.071,0,0,1-.363,1.414,4.071,4.071,0,0,1-.363-1.414c0-.45-.181-.964-.181-1.414a3.8,3.8,0,0,1,.181-1.414C22.563,69.764,22.563,69.314,22.744,68.8Z" transform="translate(17.905 -24.461)" fill="#fbfbfb"/>
  <path id="Path_377" data-name="Path 377" d="M23.544,71.2c.181.257.363.45.363.707s.181.45.181.707a1.041,1.041,0,0,1-.181.707c0,.257-.181.45-.363.707-.181-.257-.363-.45-.363-.707S23,72.871,23,72.614a1.041,1.041,0,0,1,.181-.707A1.138,1.138,0,0,1,23.544,71.2Z" transform="translate(18.557 -25.319)" fill="#fbfbfb"/>
  <path id="Path_378" data-name="Path 378" d="M24.244,68.8a4.07,4.07,0,0,1,.363,1.414c0,.45.181.964.181,1.414a3.8,3.8,0,0,1-.181,1.414,4.07,4.07,0,0,1-.363,1.414,4.071,4.071,0,0,1-.363-1.414c0-.45-.181-.964-.181-1.414a3.8,3.8,0,0,1,.181-1.414C24.063,69.764,24.063,69.314,24.244,68.8Z" transform="translate(19.128 -24.461)" fill="#fbfbfb"/>
  <path id="Path_379" data-name="Path 379" d="M25.126,64.7a14.422,14.422,0,0,1,.363,2.763v2.7a14.149,14.149,0,0,1-.181,2.763,14.422,14.422,0,0,1-.363,2.763,14.422,14.422,0,0,1-.363-2.763c0-.9-.181-1.864-.181-2.763v-2.7A7.474,7.474,0,0,0,25.126,64.7Z" transform="translate(19.698 -22.996)" fill="#fbfbfb"/>
  <path id="Path_380" data-name="Path 380" d="M25.763,60.5a31.464,31.464,0,0,1,.363,4.113v8.225a31.464,31.464,0,0,1-.363,4.113,31.463,31.463,0,0,1-.363-4.113V64.613A31.464,31.464,0,0,1,25.763,60.5Z" transform="translate(20.513 -21.495)" fill="#fbfbfb"/>
  <path id="Path_381" data-name="Path 381" d="M26.563,51.6c.181,2.313.363,4.627.363,7v13.88c0,2.313-.181,4.627-.363,7-.181-2.313-.363-4.627-.363-7V58.6A44.9,44.9,0,0,1,26.563,51.6Z" transform="translate(21.164 -18.314)" fill="#fbfbfb"/>
  <path id="Path_382" data-name="Path 382" d="M27.263,40.9c.181,3.47.363,6.94.363,10.41V72.13c0,3.47-.181,6.94-.363,10.41-.181-3.47-.363-6.94-.363-10.41V51.31C27.081,47.84,27.081,44.37,27.263,40.9Z" transform="translate(21.735 -14.49)" fill="#fbfbfb"/>
  <path id="Path_383" data-name="Path 383" d="M28.144,31.6c0,2.249.181,4.5.181,6.683l.181,6.683c0,4.434.181,8.932.181,13.366s0,8.932-.181,13.366l-.181,6.811c0,2.249-.181,4.434-.181,6.683-.181-2.249-.181-4.434-.181-6.683l-.181-6.683c0-4.434-.181-8.932-.181-13.366s0-8.932.181-13.366l.181-6.811C27.963,36.1,27.963,33.849,28.144,31.6Z" transform="translate(22.305 -11.166)" fill="#fbfbfb"/>
  <path id="Path_384" data-name="Path 384" d="M28.944,23.4c.181,2.7.181,5.333.181,8.032l.181,8.032c0,5.333.181,10.667.181,16s0,10.667-.181,16L29.126,79.5c0,2.7-.181,5.333-.181,8.032-.181-2.7-.181-5.334-.181-8.032l-.181-8.032c0-5.334-.181-10.667-.181-16s0-10.667.181-16l.181-8.032C28.763,28.733,28.763,26.1,28.944,23.4Z" transform="translate(22.957 -8.235)" fill="#fbfbfb"/>
  <path id="Path_385" data-name="Path 385" d="M29.644,27.5c.181,2.442.181,4.884.181,7.326l.181,7.326c0,4.884.181,9.832.181,14.715s0,9.832-.181,14.715l-.181,7.326c0,2.442-.181,4.884-.181,7.326-.181-2.442-.181-4.884-.181-7.326l-.181-7.326c0-4.884-.181-9.832-.181-14.715s0-9.832.181-14.715l.181-7.261C29.463,32.448,29.644,29.942,29.644,27.5Z" transform="translate(23.527 -9.7)" fill="#fbfbfb"/>
  <path id="Path_386" data-name="Path 386" d="M30.363,35.6c.181,4.048.363,8.1.363,12.081V71.842c0,4.048-.181,8.1-.363,12.081-.181-4.048-.363-8.1-.363-12.081V47.681C30,43.7,30.181,39.648,30.363,35.6Z" transform="translate(24.26 -12.595)" fill="#fbfbfb"/>
  <path id="Path_387" data-name="Path 387" d="M31.244,30.2c0,2.313,0,4.627.181,6.94l.181,6.94c0,4.627.181,9.253.181,13.88s0,9.253-.181,13.88l-.181,6.94c0,2.313-.181,4.627-.181,6.94-.181-2.313-.181-4.627-.181-6.94l-.181-6.94c0-4.627-.181-9.253-.181-13.88s0-9.253.181-13.88V37.14C31.063,34.827,31.063,32.513,31.244,30.2Z" transform="translate(24.831 -10.665)" fill="#fbfbfb"/>
  <path id="Path_388" data-name="Path 388" d="M31.863,37.8c.181,3.791.363,7.583.363,11.438V72.114c0,3.791-.181,7.583-.363,11.438-.181-3.791-.363-7.583-.363-11.438V49.238C31.681,45.383,31.681,41.591,31.863,37.8Z" transform="translate(25.482 -13.382)" fill="#fbfbfb"/>
  <path id="Path_389" data-name="Path 389" d="M32.663,44.8c.181,3.02.363,6.1.363,9.125v18.25c0,3.02-.181,6.1-.363,9.125-.181-3.02-.363-6.1-.363-9.125V53.925C32.3,50.9,32.481,47.884,32.663,44.8Z" transform="translate(26.134 -15.883)" fill="#fbfbfb"/>
  <path id="Path_390" data-name="Path 390" d="M33.463,54.4c.181,1.992.363,4.048.363,6.04V72.521c0,1.992-.181,4.048-.363,6.04-.181-1.992-.363-4.048-.363-6.04V60.44C33.1,58.448,33.281,56.456,33.463,54.4Z" transform="translate(26.786 -19.315)" fill="#fbfbfb"/>
  <path id="Path_391" data-name="Path 391" d="M34.163,47.1c.181,2.827.363,5.591.363,8.418V72.482c0,2.827-.181,5.59-.363,8.418-.181-2.827-.363-5.591-.363-8.418V55.518C33.981,52.691,33.981,49.927,34.163,47.1Z" transform="translate(27.356 -16.705)" fill="#fbfbfb"/>
  <path id="Path_392" data-name="Path 392" d="M34.963,37.8c.181,3.791.363,7.583.363,11.438V72.114c0,3.791-.181,7.583-.363,11.438-.181-3.791-.363-7.583-.363-11.438V49.238C34.6,45.383,34.781,41.591,34.963,37.8Z" transform="translate(28.008 -13.382)" fill="#fbfbfb"/>
  <path id="Path_393" data-name="Path 393" d="M35.763,47.1c.181,2.827.363,5.591.363,8.418V72.482c0,2.827-.181,5.59-.363,8.418-.181-2.827-.363-5.591-.363-8.418V55.518C35.4,52.691,35.581,49.927,35.763,47.1Z" transform="translate(28.66 -16.705)" fill="#fbfbfb"/>
  <path id="Path_394" data-name="Path 394" d="M36.463,58a45.366,45.366,0,0,1,.363,4.948v9.767a45.366,45.366,0,0,1-.363,4.948,45.368,45.368,0,0,1-.363-4.948V62.948C36.281,61.277,36.281,59.606,36.463,58Z" transform="translate(29.23 -20.601)" fill="#fbfbfb"/>
  <path id="Path_395" data-name="Path 395" d="M37.426,64.7a14.422,14.422,0,0,1,.363,2.763v2.7a14.149,14.149,0,0,1-.181,2.763,14.421,14.421,0,0,1-.363,2.763,14.422,14.422,0,0,1-.363-2.763c0-.9-.181-1.864-.181-2.763v-2.7A14.218,14.218,0,0,0,37.426,64.7Z" transform="translate(29.719 -22.996)" fill="#fbfbfb"/>
  <path id="Path_396" data-name="Path 396" d="M38.144,68.8a4.07,4.07,0,0,1,.363,1.414c0,.45.181.964.181,1.414a3.8,3.8,0,0,1-.181,1.414,4.07,4.07,0,0,1-.363,1.414,4.071,4.071,0,0,1-.363-1.414c0-.45-.181-.964-.181-1.414a3.8,3.8,0,0,1,.181-1.414A4.46,4.46,0,0,1,38.144,68.8Z" transform="translate(30.452 -24.461)" fill="#fbfbfb"/>
  <path id="Path_397" data-name="Path 397" d="M38.926,65.6a11.934,11.934,0,0,1,.363,2.506v2.442a11.661,11.661,0,0,1-.181,2.506,11.934,11.934,0,0,1-.363,2.506,11.934,11.934,0,0,1-.363-2.506c0-.835-.181-1.671-.181-2.506V68.106A6.569,6.569,0,0,0,38.926,65.6Z" transform="translate(30.941 -23.318)" fill="#fbfbfb"/>
  <path id="Path_398" data-name="Path 398" d="M39.563,59.2a37.561,37.561,0,0,1,.363,4.5v9a37.56,37.56,0,0,1-.363,4.5,37.563,37.563,0,0,1-.363-4.5v-9A38.66,38.66,0,0,1,39.563,59.2Z" transform="translate(31.756 -21.03)" fill="#fbfbfb"/>
  <path id="Path_399" data-name="Path 399" d="M40.363,53.4c.181,2.121.363,4.241.363,6.426V72.678c0,2.121-.181,4.241-.363,6.426C40.181,76.983,40,74.863,40,72.678V59.826C40,57.641,40.181,55.521,40.363,53.4Z" transform="translate(32.408 -18.957)" fill="#fbfbfb"/>
  <path id="Path_400" data-name="Path 400" d="M41.063,56.8a52.648,52.648,0,0,1,.363,5.333V72.672a52.647,52.647,0,0,1-.363,5.334,52.651,52.651,0,0,1-.363-5.334V62.133C40.881,60.334,40.881,58.535,41.063,56.8Z" transform="translate(32.978 -20.172)" fill="#fbfbfb"/>
  <path id="Path_401" data-name="Path 401" d="M41.863,61.7a25.912,25.912,0,0,1,.363,3.727v7.454a25.91,25.91,0,0,1-.363,3.727,25.915,25.915,0,0,1-.363-3.727V65.427A25.05,25.05,0,0,1,41.863,61.7Z" transform="translate(33.63 -21.924)" fill="#fbfbfb"/>
  <path id="Path_402" data-name="Path 402" d="M42.826,65.6a11.934,11.934,0,0,1,.363,2.506v2.442a11.661,11.661,0,0,1-.181,2.506,11.934,11.934,0,0,1-.363,2.506,11.934,11.934,0,0,1-.363-2.506c0-.835-.181-1.671-.181-2.506V68.106A13.048,13.048,0,0,0,42.826,65.6Z" transform="translate(34.118 -23.318)" fill="#fbfbfb"/>
  <path id="Path_403" data-name="Path 403" d="M43.444,68a5.972,5.972,0,0,1,.363,1.671c0,.578.181,1.157.181,1.671a5.058,5.058,0,0,1-.181,1.671,5.137,5.137,0,0,1-.363,1.671,5.972,5.972,0,0,1-.363-1.671c0-.578-.181-1.157-.181-1.671a5.058,5.058,0,0,1,.181-1.671C43.263,69.157,43.263,68.578,43.444,68Z" transform="translate(34.77 -24.175)" fill="#fbfbfb"/>
  <path id="Path_404" data-name="Path 404" d="M44.244,69.9a2.594,2.594,0,0,1,.363,1.092c0,.386.181.707.181,1.092a2.316,2.316,0,0,1-.181,1.092,2.594,2.594,0,0,1-.363,1.092,2.594,2.594,0,0,1-.363-1.092c0-.386-.181-.707-.181-1.092a2.316,2.316,0,0,1,.181-1.092A2.918,2.918,0,0,1,44.244,69.9Z" transform="translate(35.422 -24.854)" fill="#fbfbfb"/>
  <path id="Path_405" data-name="Path 405" d="M68.763,78.519c-.181-1.928-.363-3.92-.363-5.848V60.848c0-1.928.181-3.92.363-5.848.181,1.928.363,3.92.363,5.848V72.671C68.944,74.6,68.944,76.527,68.763,78.519Z" transform="translate(55.546 -19.529)" fill="#fbfbfb"/>
  <path id="Path_406" data-name="Path 406" d="M69.463,82.34c-.181-3.406-.363-6.811-.363-10.217V51.817c0-3.406.181-6.811.363-10.217.181,3.406.363,6.811.363,10.217V72.123C69.826,75.529,69.644,78.934,69.463,82.34Z" transform="translate(56.116 -14.74)" fill="#fbfbfb"/>
  <path id="Path_407" data-name="Path 407" d="M70.344,86.86c-.181-2.57-.181-5.141-.181-7.711l-.181-7.711c0-5.141-.181-10.217-.181-15.358s0-10.217.181-15.358l.181-7.711c0-2.57.181-5.141.181-7.711.181,2.57.181,5.141.181,7.711l.181,7.711c0,5.141.181,10.217.181,15.358s0,10.217-.181,15.358l-.181,7.711C70.526,81.784,70.526,84.29,70.344,86.86Z" transform="translate(56.686 -8.914)" fill="#fbfbfb"/>
  <path id="Path_408" data-name="Path 408" d="M71.063,90.055c-.181-3.149-.181-6.3-.181-9.382L70.7,71.291V33.764l.181-9.382c0-3.149.181-6.3.181-9.382.181,3.149.181,6.3.181,9.382l.181,9.382V71.291l-.181,9.382C71.063,83.821,71.063,86.97,71.063,90.055Z" transform="translate(57.42 -5.233)" fill="#fbfbfb"/>
  <path id="Path_409" data-name="Path 409" d="M71.844,88.586c-.181-2.892-.181-5.719-.181-8.611l-.181-8.611c0-5.719-.181-11.5-.181-17.221s0-11.5.181-17.221l.181-8.611c0-2.892.181-5.719.181-8.611.181,2.892.181,5.719.181,8.611l.181,8.611c0,5.719.181,11.5.181,17.221s0,11.5-.181,17.221l-.181,8.611C72.026,82.867,72.026,85.758,71.844,88.586Z" transform="translate(57.908 -6.912)" fill="#fbfbfb"/>
  <path id="Path_410" data-name="Path 410" d="M72.644,86.668c-.181-2.506-.181-5.012-.181-7.583L72.281,71.5c0-5.012-.181-10.089-.181-15.1s0-10.089.181-15.1l.181-7.518c0-2.506.181-5.012.181-7.583.181,2.506.181,5.012.181,7.583l.181,7.583c0,5.012.181,10.089.181,15.1s0,10.089-.181,15.1l-.181,7.583C72.826,81.656,72.826,84.162,72.644,86.668Z" transform="translate(58.56 -9.236)" fill="#fbfbfb"/>
  <path id="Path_411" data-name="Path 411" d="M73.363,84.707C73.181,80.4,73,76.161,73,71.855v-25.7c0-4.305.181-8.546.363-12.852.181,4.305.363,8.546.363,12.852v25.7C73.544,76.161,73.544,80.4,73.363,84.707Z" transform="translate(59.294 -11.773)" fill="#fbfbfb"/>
  <path id="Path_412" data-name="Path 412" d="M74.063,83.11c-.181-3.663-.363-7.326-.363-11.053V49.953c0-3.663.181-7.326.363-11.053.181,3.663.363,7.326.363,11.053V72.058C74.426,75.72,74.244,79.383,74.063,83.11Z" transform="translate(59.864 -13.775)" fill="#fbfbfb"/>
  <path id="Path_413" data-name="Path 413" d="M74.863,81.5c-.181-3.02-.363-6.1-.363-9.125V54.125c0-3.02.181-6.1.363-9.125.181,3.02.363,6.1.363,9.125v18.25C75.226,75.395,75.044,78.415,74.863,81.5Z" transform="translate(60.516 -15.955)" fill="#fbfbfb"/>
  <path id="Path_414" data-name="Path 414" d="M75.663,82.34c-.181-3.406-.363-6.811-.363-10.217V51.817c0-3.406.181-6.811.363-10.217.181,3.406.363,6.811.363,10.217V72.123C75.844,75.529,75.844,78.934,75.663,82.34Z" transform="translate(61.167 -14.74)" fill="#fbfbfb"/>
  <path id="Path_415" data-name="Path 415" d="M76.363,83.352C76.181,79.561,76,75.77,76,71.914V49.038c0-3.791.181-7.583.363-11.438.181,3.791.363,7.583.363,11.438V71.914C76.726,75.77,76.544,79.561,76.363,83.352Z" transform="translate(61.738 -13.31)" fill="#fbfbfb"/>
  <path id="Path_416" data-name="Path 416" d="M77.163,84.707c-.181-4.305-.363-8.546-.363-12.852v-25.7c0-4.305.181-8.546.363-12.852.181,4.305.363,8.546.363,12.852v25.7C77.526,76.161,77.344,80.4,77.163,84.707Z" transform="translate(62.389 -11.773)" fill="#fbfbfb"/>
  <path id="Path_417" data-name="Path 417" d="M77.963,84.123c-.181-4.048-.363-8.1-.363-12.081V47.881c0-4.048.181-8.1.363-12.081.181,4.048.363,8.1.363,12.081V72.042C78.144,76.026,78.144,80.074,77.963,84.123Z" transform="translate(63.041 -12.667)" fill="#fbfbfb"/>
  <path id="Path_418" data-name="Path 418" d="M78.663,82.9c-.181-3.6-.363-7.133-.363-10.731V50.831c0-3.6.181-7.133.363-10.731.181,3.6.363,7.133.363,10.731V72.165C79.026,75.764,78.844,79.3,78.663,82.9Z" transform="translate(63.612 -14.204)" fill="#fbfbfb"/>
  <path id="Path_419" data-name="Path 419" d="M79.463,81.969c-.181-3.277-.363-6.49-.363-9.767V52.667c0-3.277.181-6.49.363-9.767.181,3.277.363,6.49.363,9.767V72.2C79.826,75.479,79.644,78.692,79.463,81.969Z" transform="translate(64.263 -15.204)" fill="#fbfbfb"/>
  <path id="Path_420" data-name="Path 420" d="M80.263,80.7c-.181-2.827-.363-5.591-.363-8.418V55.318c0-2.827.181-5.591.363-8.418.181,2.827.363,5.591.363,8.418V72.282C80.444,75.11,80.444,77.873,80.263,80.7Z" transform="translate(64.915 -16.634)" fill="#fbfbfb"/>
  <path id="Path_421" data-name="Path 421" d="M80.963,79.588c-.181-2.313-.363-4.627-.363-7V58.7c0-2.313.181-4.627.363-7,.181,2.313.363,4.627.363,7v13.88C81.326,74.9,81.144,77.211,80.963,79.588Z" transform="translate(65.485 -18.35)" fill="#fbfbfb"/>
  <path id="Path_422" data-name="Path 422" d="M81.763,77.663a45.367,45.367,0,0,1-.363-4.948V62.948A45.367,45.367,0,0,1,81.763,58a45.366,45.366,0,0,1,.363,4.948v9.767A44.218,44.218,0,0,1,81.763,77.663Z" transform="translate(66.137 -20.601)" fill="#fbfbfb"/>
  <path id="Path_423" data-name="Path 423" d="M82.563,76.28A20.125,20.125,0,0,1,82.2,73V66.577a20.125,20.125,0,0,1,.363-3.277,20.125,20.125,0,0,1,.363,3.277V73C82.744,74.1,82.744,75.188,82.563,76.28Z" transform="translate(66.789 -22.496)" fill="#fbfbfb"/>
  <path id="Path_424" data-name="Path 424" d="M83.344,75.3c-.181-.771-.181-1.478-.363-2.249,0-.771-.181-1.478-.181-2.249a9.416,9.416,0,0,1,.181-2.249,9.689,9.689,0,0,1,.363-2.249,9.69,9.69,0,0,1,.363,2.249c0,.771.181,1.478.181,2.249a9.416,9.416,0,0,1-.181,2.249A9.689,9.689,0,0,1,83.344,75.3Z" transform="translate(67.278 -23.568)" fill="#fbfbfb"/>
  <path id="Path_425" data-name="Path 425" d="M84.144,74.655a4.071,4.071,0,0,1-.363-1.414c0-.45-.181-.964-.181-1.414a3.8,3.8,0,0,1,.181-1.414A4.071,4.071,0,0,1,84.144,69a4.071,4.071,0,0,1,.363,1.414c0,.45.181.964.181,1.414a3.8,3.8,0,0,1-.181,1.414A4.46,4.46,0,0,1,84.144,74.655Z" transform="translate(67.93 -24.533)" fill="#fbfbfb"/>
  <path id="Path_426" data-name="Path 426" d="M84.944,75.3a9.689,9.689,0,0,1-.363-2.249c0-.771-.181-1.478-.181-2.249a9.416,9.416,0,0,1,.181-2.249,9.689,9.689,0,0,1,.363-2.249,9.69,9.69,0,0,1,.363,2.249c0,.771.181,1.478.181,2.249a9.416,9.416,0,0,1-.181,2.249C85.126,73.818,85.126,74.525,84.944,75.3Z" transform="translate(68.581 -23.568)" fill="#fbfbfb"/>
  <path id="Path_427" data-name="Path 427" d="M85.563,76.594A24.182,24.182,0,0,1,85.2,73V65.8a24.181,24.181,0,0,1,.363-3.6,24.185,24.185,0,0,1,.363,3.6V73A25.072,25.072,0,0,1,85.563,76.594Z" transform="translate(69.233 -22.102)" fill="#fbfbfb"/>
  <path id="Path_428" data-name="Path 428" d="M86.363,77.393a37.562,37.562,0,0,1-.363-4.5v-9a37.562,37.562,0,0,1,.363-4.5,37.565,37.565,0,0,1,.363,4.5v9A37.556,37.556,0,0,1,86.363,77.393Z" transform="translate(69.885 -21.102)" fill="#fbfbfb"/>
  <path id="Path_429" data-name="Path 429" d="M87.163,76.594A24.183,24.183,0,0,1,86.8,73V65.8a24.182,24.182,0,0,1,.363-3.6,24.185,24.185,0,0,1,.363,3.6V73C87.344,74.152,87.344,75.373,87.163,76.594Z" transform="translate(70.537 -22.102)" fill="#fbfbfb"/>
  <path id="Path_430" data-name="Path 430" d="M87.944,75.3a9.69,9.69,0,0,1-.363-2.249c0-.771-.181-1.478-.181-2.249a9.416,9.416,0,0,1,.181-2.249,9.69,9.69,0,0,1,.363-2.249,9.69,9.69,0,0,1,.363,2.249c0,.771.181,1.478.181,2.249a9.416,9.416,0,0,1-.181,2.249A4.893,4.893,0,0,1,87.944,75.3Z" transform="translate(71.026 -23.568)" fill="#fbfbfb"/>
  <path id="Path_431" data-name="Path 431" d="M88.744,74.655a4.07,4.07,0,0,1-.363-1.414c0-.45-.181-.964-.181-1.414a3.8,3.8,0,0,1,.181-1.414A4.07,4.07,0,0,1,88.744,69a4.071,4.071,0,0,1,.363,1.414c0,.45.181.964.181,1.414a3.8,3.8,0,0,1-.181,1.414A4.46,4.46,0,0,1,88.744,74.655Z" transform="translate(71.677 -24.533)" fill="#fbfbfb"/>
  <path id="Path_432" data-name="Path 432" d="M89.544,73.927c-.181-.257-.363-.45-.363-.707S89,72.771,89,72.514a1.041,1.041,0,0,1,.181-.707c0-.257.181-.45.363-.707.181.257.363.45.363.707s.181.45.181.707a1.041,1.041,0,0,1-.181.707C89.726,73.413,89.726,73.67,89.544,73.927Z" transform="translate(72.329 -25.283)" fill="#fbfbfb"/>
  <path id="Path_433" data-name="Path 433" d="M90.244,74.655a4.071,4.071,0,0,1-.363-1.414c0-.45-.181-.964-.181-1.414a3.8,3.8,0,0,1,.181-1.414A4.071,4.071,0,0,1,90.244,69a4.07,4.07,0,0,1,.363,1.414c0,.45.181.964.181,1.414a3.8,3.8,0,0,1-.181,1.414A2.167,2.167,0,0,1,90.244,74.655Z" transform="translate(72.899 -24.533)" fill="#fbfbfb"/>
  <path id="Path_434" data-name="Path 434" d="M90.963,75.788a14.421,14.421,0,0,1-.363-2.763v-2.7a14.149,14.149,0,0,1,.181-2.763,14.423,14.423,0,0,1,.363-2.763,14.421,14.421,0,0,1,.363,2.763c0,.9.181,1.864.181,2.763v2.7A15.53,15.53,0,0,0,90.963,75.788Z" transform="translate(73.633 -23.032)" fill="#fbfbfb"/>
  <path id="Path_435" data-name="Path 435" d="M91.763,77.05a31.466,31.466,0,0,1-.363-4.113V64.713a31.465,31.465,0,0,1,.363-4.113,31.465,31.465,0,0,1,.363,4.113v8.225C91.944,74.287,91.944,75.637,91.763,77.05Z" transform="translate(74.284 -21.531)" fill="#fbfbfb"/>
  <path id="Path_436" data-name="Path 436" d="M92.463,79.588c-.181-2.313-.363-4.627-.363-7V58.7c0-2.313.181-4.627.363-7,.181,2.313.363,4.627.363,7v13.88A45.722,45.722,0,0,1,92.463,79.588Z" transform="translate(74.855 -18.35)" fill="#fbfbfb"/>
  <path id="Path_437" data-name="Path 437" d="M93.263,82.54c-.181-3.47-.363-6.94-.363-10.41V51.31c0-3.47.181-6.94.363-10.41.181,3.47.363,6.94.363,10.41V72.13C93.626,75.6,93.444,79.07,93.263,82.54Z" transform="translate(75.507 -14.49)" fill="#fbfbfb"/>
  <path id="Path_438" data-name="Path 438" d="M94.144,85.192c-.181-2.249-.181-4.434-.181-6.683l-.181-6.683c0-4.434-.181-8.932-.181-13.366s0-8.932.181-13.366l.181-6.811c0-2.249.181-4.434.181-6.683,0,2.249.181,4.5.181,6.683l.181,6.683c0,4.434.181,8.932.181,13.366s0,8.932-.181,13.366l-.181,6.811C94.326,80.758,94.144,82.943,94.144,85.192Z" transform="translate(76.077 -11.166)" fill="#fbfbfb"/>
  <path id="Path_439" data-name="Path 439" d="M94.944,87.53c-.181-2.7-.181-5.333-.181-8.032l-.181-8.032c0-5.334-.181-10.667-.181-16s0-10.667.181-16l.181-8.032c0-2.7.181-5.333.181-8.032.181,2.7.181,5.333.181,8.032l.181,8.032c0,5.333.181,10.667.181,16s0,10.667-.181,16L95.126,79.5C94.944,82.2,94.944,84.832,94.944,87.53Z" transform="translate(76.729 -8.235)" fill="#fbfbfb"/>
  <path id="Path_440" data-name="Path 440" d="M95.644,86.4c-.181-2.442-.181-4.884-.181-7.326l-.181-7.326c0-4.884-.181-9.832-.181-14.715s0-9.832.181-14.715l.181-7.39c0-2.442.181-4.884.181-7.326.181,2.442.181,4.884.181,7.326l.181,7.326c0,4.884.181,9.832.181,14.715s0,9.832-.181,14.715l-.181,7.326C95.826,81.513,95.826,83.955,95.644,86.4Z" transform="translate(77.299 -9.736)" fill="#fbfbfb"/>
  <path id="Path_441" data-name="Path 441" d="M96.363,84.123c-.181-4.048-.363-8.1-.363-12.081V47.881c0-4.048.181-8.1.363-12.081.181,4.048.363,8.1.363,12.081V72.042C96.726,76.026,96.544,80.074,96.363,84.123Z" transform="translate(78.032 -12.667)" fill="#fbfbfb"/>
  <path id="Path_442" data-name="Path 442" d="M97.244,85.591c-.181-2.313-.181-4.627-.181-6.94l-.181-6.94c0-4.627-.181-9.253-.181-13.88s0-9.253.181-13.88V37.14c0-2.313.181-4.627.181-6.94.181,2.313.181,4.627.363,6.94l.181,6.94c0,4.627.181,9.253.181,13.88s0,9.253-.181,13.88l-.181,6.94C97.244,80.965,97.244,83.278,97.244,85.591Z" transform="translate(78.602 -10.665)" fill="#fbfbfb"/>
  <path id="Path_443" data-name="Path 443" d="M97.863,83.352c-.181-3.791-.363-7.583-.363-11.438V49.038c0-3.791.181-7.583.363-11.438.181,3.791.363,7.583.363,11.438V71.914C98.226,75.77,98.044,79.561,97.863,83.352Z" transform="translate(79.254 -13.31)" fill="#fbfbfb"/>
  <path id="Path_444" data-name="Path 444" d="M98.663,81.5c-.181-3.02-.363-6.1-.363-9.125V54.125c0-3.02.181-6.1.363-9.125.181,3.02.363,6.1.363,9.125v18.25C99.026,75.395,98.844,78.415,98.663,81.5Z" transform="translate(79.906 -15.955)" fill="#fbfbfb"/>
  <path id="Path_445" data-name="Path 445" d="M99.463,78.761c-.181-1.992-.363-4.048-.363-6.04V60.64c0-1.992.181-4.048.363-6.04.181,1.992.363,4.048.363,6.04V72.721C99.644,74.713,99.644,76.769,99.463,78.761Z" transform="translate(80.558 -19.386)" fill="#fbfbfb"/>
  <path id="Path_446" data-name="Path 446" d="M100.163,80.7c-.181-2.827-.363-5.591-.363-8.418V55.318c0-2.827.181-5.591.363-8.418.181,2.827.363,5.591.363,8.418V72.282C100.526,75.11,100.344,77.873,100.163,80.7Z" transform="translate(81.128 -16.634)" fill="#fbfbfb"/>
  <path id="Path_447" data-name="Path 447" d="M100.963,83.352c-.181-3.791-.363-7.583-.363-11.438V49.038c0-3.791.181-7.583.363-11.438.181,3.791.363,7.583.363,11.438V71.914C101.326,75.77,101.144,79.561,100.963,83.352Z" transform="translate(81.78 -13.31)" fill="#fbfbfb"/>
  <path id="Path_448" data-name="Path 448" d="M101.763,80.7c-.181-2.827-.363-5.591-.363-8.418V55.318c0-2.827.181-5.591.363-8.418.181,2.827.363,5.591.363,8.418V72.282C101.944,75.11,101.944,77.873,101.763,80.7Z" transform="translate(82.432 -16.634)" fill="#fbfbfb"/>
  <path id="Path_449" data-name="Path 449" d="M102.463,77.663a45.371,45.371,0,0,1-.363-4.948V62.948A45.37,45.37,0,0,1,102.463,58a45.37,45.37,0,0,1,.363,4.948v9.767A44.221,44.221,0,0,1,102.463,77.663Z" transform="translate(83.002 -20.601)" fill="#fbfbfb"/>
  <path id="Path_450" data-name="Path 450" d="M103.263,75.788a14.421,14.421,0,0,1-.363-2.763v-2.7a14.15,14.15,0,0,1,.181-2.763,14.424,14.424,0,0,1,.363-2.763,14.423,14.423,0,0,1,.363,2.763c0,.9.181,1.864.181,2.763v2.7A15.532,15.532,0,0,0,103.263,75.788Z" transform="translate(83.654 -23.032)" fill="#fbfbfb"/>
  <path id="Path_451" data-name="Path 451" d="M104.144,74.655a4.071,4.071,0,0,1-.363-1.414c0-.45-.181-.964-.181-1.414a3.8,3.8,0,0,1,.181-1.414A4.071,4.071,0,0,1,104.144,69a4.071,4.071,0,0,1,.363,1.414c0,.45.181.964.181,1.414a3.8,3.8,0,0,1-.181,1.414C104.326,73.691,104.326,74.141,104.144,74.655Z" transform="translate(84.224 -24.533)" fill="#fbfbfb"/>
  <path id="Path_452" data-name="Path 452" d="M104.763,75.46a11.933,11.933,0,0,1-.363-2.506V70.512a11.661,11.661,0,0,1,.181-2.506,11.935,11.935,0,0,1,.363-2.506,11.935,11.935,0,0,1,.363,2.506c0,.835.181,1.671.181,2.506v2.442A16.362,16.362,0,0,0,104.763,75.46Z" transform="translate(84.876 -23.282)" fill="#fbfbfb"/>
  <path id="Path_453" data-name="Path 453" d="M105.563,77.393a37.564,37.564,0,0,1-.363-4.5v-9a37.563,37.563,0,0,1,.363-4.5,37.566,37.566,0,0,1,.363,4.5v9A37.567,37.567,0,0,1,105.563,77.393Z" transform="translate(85.528 -21.102)" fill="#fbfbfb"/>
  <path id="Path_454" data-name="Path 454" d="M106.363,78.9c-.181-2.121-.363-4.241-.363-6.426V59.626c0-2.121.181-4.241.363-6.426.181,2.121.363,4.241.363,6.426V72.478C106.544,74.662,106.544,76.783,106.363,78.9Z" transform="translate(86.179 -18.886)" fill="#fbfbfb"/>
  <path id="Path_455" data-name="Path 455" d="M107.063,78.005a52.645,52.645,0,0,1-.363-5.333V62.134a52.646,52.646,0,0,1,.363-5.334,52.65,52.65,0,0,1,.363,5.334V72.672A51.411,51.411,0,0,1,107.063,78.005Z" transform="translate(86.75 -20.172)" fill="#fbfbfb"/>
  <path id="Path_456" data-name="Path 456" d="M107.863,76.708a25.911,25.911,0,0,1-.363-3.727V65.527a25.911,25.911,0,0,1,.363-3.727,25.913,25.913,0,0,1,.363,3.727v7.454A26.826,26.826,0,0,1,107.863,76.708Z" transform="translate(87.402 -21.959)" fill="#fbfbfb"/>
  <path id="Path_457" data-name="Path 457" d="M108.663,75.46a11.933,11.933,0,0,1-.363-2.506V70.512a11.661,11.661,0,0,1,.181-2.506,11.935,11.935,0,0,1,.363-2.506,11.935,11.935,0,0,1,.363,2.506c0,.835.181,1.671.181,2.506v2.442A7.282,7.282,0,0,0,108.663,75.46Z" transform="translate(88.053 -23.282)" fill="#fbfbfb"/>
  <path id="Path_458" data-name="Path 458" d="M109.444,74.883a5.972,5.972,0,0,1-.363-1.671c0-.578-.181-1.157-.181-1.671a5.058,5.058,0,0,1,.181-1.671,5.138,5.138,0,0,1,.363-1.671,5.972,5.972,0,0,1,.363,1.671c0,.578.181,1.157.181,1.671a5.058,5.058,0,0,1-.181,1.671A5.97,5.97,0,0,1,109.444,74.883Z" transform="translate(88.542 -24.247)" fill="#fbfbfb"/>
  <path id="Path_459" data-name="Path 459" d="M110.244,74.27a2.594,2.594,0,0,1-.363-1.092c0-.386-.181-.707-.181-1.092a2.316,2.316,0,0,1,.181-1.092,2.594,2.594,0,0,1,.363-1.092,2.593,2.593,0,0,1,.363,1.092c0,.386.181.707.181,1.092a2.316,2.316,0,0,1-.181,1.092A2.594,2.594,0,0,1,110.244,74.27Z" transform="translate(89.194 -24.854)" fill="#fbfbfb"/>
  <path id="Path_460" data-name="Path 460" d="M44.963,63.8a17.9,17.9,0,0,1,.363,3.02v6.169a16.454,16.454,0,0,1-.363,3.02,17.9,17.9,0,0,1-.363-3.02V66.82A17.9,17.9,0,0,1,44.963,63.8Z" transform="translate(36.155 -22.674)" fill="#fbfbfb"/>
  <path id="Path_461" data-name="Path 461" d="M45.663,58a45.367,45.367,0,0,1,.363,4.948v9.767a45.368,45.368,0,0,1-.363,4.948,45.367,45.367,0,0,1-.363-4.948V62.948C45.481,61.277,45.481,59.606,45.663,58Z" transform="translate(36.726 -20.601)" fill="#fbfbfb"/>
  <path id="Path_462" data-name="Path 462" d="M46.463,54.1c.181,2.056.363,4.113.363,6.169V72.607c0,2.056-.181,4.113-.363,6.169-.181-2.056-.363-4.113-.363-6.169V60.269C46.1,58.213,46.281,56.156,46.463,54.1Z" transform="translate(37.377 -19.207)" fill="#fbfbfb"/>
  <path id="Path_463" data-name="Path 463" d="M47.263,49.4c.181,2.57.363,5.141.363,7.647V72.469c0,2.57-.181,5.141-.363,7.647-.181-2.57-.363-5.141-.363-7.647V57.047C46.9,54.541,47.081,51.97,47.263,49.4Z" transform="translate(38.029 -17.528)" fill="#fbfbfb"/>
  <path id="Path_464" data-name="Path 464" d="M47.963,55.1c.181,1.928.363,3.92.363,5.848V72.771c0,1.928-.181,3.92-.363,5.848-.181-1.928-.363-3.92-.363-5.848V60.948C47.781,58.956,47.781,57.028,47.963,55.1Z" transform="translate(38.599 -19.565)" fill="#fbfbfb"/>
  <path id="Path_465" data-name="Path 465" d="M48.763,60.8a30.5,30.5,0,0,1,.363,4.048v7.968a30.5,30.5,0,0,1-.363,4.048,30.5,30.5,0,0,1-.363-4.048V64.848A30.5,30.5,0,0,1,48.763,60.8Z" transform="translate(39.251 -21.602)" fill="#fbfbfb"/>
  <path id="Path_466" data-name="Path 466" d="M49.726,65.3a12.534,12.534,0,0,1,.363,2.57v2.57a12.261,12.261,0,0,1-.181,2.57,12.532,12.532,0,0,1-.363,2.57,12.533,12.533,0,0,1-.363-2.57c0-.835-.181-1.735-.181-2.57V67.87A13.647,13.647,0,0,0,49.726,65.3Z" transform="translate(39.74 -23.21)" fill="#fbfbfb"/>
  <path id="Path_467" data-name="Path 467" d="M50.344,66.4a9.689,9.689,0,0,1,.363,2.249c0,.771.181,1.478.181,2.249a9.416,9.416,0,0,1-.181,2.249,9.689,9.689,0,0,1-.363,2.249c-.181-.835-.181-1.542-.363-2.313,0-.771-.181-1.478-.181-2.249a9.416,9.416,0,0,1,.181-2.249C50.163,67.878,50.163,67.107,50.344,66.4Z" transform="translate(40.392 -23.604)" fill="#fbfbfb"/>
  <path id="Path_468" data-name="Path 468" d="M51.063,62.1a24.183,24.183,0,0,1,.363,3.6v7.2a24.182,24.182,0,0,1-.363,3.6,24.183,24.183,0,0,1-.363-3.6V65.7A23.349,23.349,0,0,1,51.063,62.1Z" transform="translate(41.125 -22.067)" fill="#fbfbfb"/>
  <path id="Path_469" data-name="Path 469" d="M51.863,59.2a37.562,37.562,0,0,1,.363,4.5v9a37.56,37.56,0,0,1-.363,4.5,37.562,37.562,0,0,1-.363-4.5v-9A38.658,38.658,0,0,1,51.863,59.2Z" transform="translate(41.777 -21.03)" fill="#fbfbfb"/>
  <path id="Path_470" data-name="Path 470" d="M52.563,62.1a24.183,24.183,0,0,1,.363,3.6v7.2a24.182,24.182,0,0,1-.363,3.6,24.184,24.184,0,0,1-.363-3.6V65.7C52.381,64.478,52.381,63.257,52.563,62.1Z" transform="translate(42.347 -22.067)" fill="#fbfbfb"/>
  <path id="Path_471" data-name="Path 471" d="M53.444,66.4a9.689,9.689,0,0,1,.363,2.249c0,.771.181,1.478.181,2.249a9.416,9.416,0,0,1-.181,2.249,9.689,9.689,0,0,1-.363,2.249,10.818,10.818,0,0,1-.363-2.313c0-.771-.181-1.478-.181-2.249a9.416,9.416,0,0,1,.181-2.249A9.166,9.166,0,0,1,53.444,66.4Z" transform="translate(42.918 -23.604)" fill="#fbfbfb"/>
  <path id="Path_472" data-name="Path 472" d="M54.163,63.6a17.879,17.879,0,0,1,.363,3.149v6.169a19.389,19.389,0,0,1-.363,3.149,17.882,17.882,0,0,1-.363-3.149V66.749A17.881,17.881,0,0,1,54.163,63.6Z" transform="translate(43.651 -22.603)" fill="#fbfbfb"/>
  <path id="Path_473" data-name="Path 473" d="M54.863,58a45.368,45.368,0,0,1,.363,4.948v9.767a45.367,45.367,0,0,1-.363,4.948,45.369,45.369,0,0,1-.363-4.948V62.948C54.681,61.277,54.681,59.606,54.863,58Z" transform="translate(44.221 -20.601)" fill="#fbfbfb"/>
  <path id="Path_474" data-name="Path 474" d="M55.663,52.4c.181,2.249.363,4.5.363,6.683V72.449c0,2.249-.181,4.5-.363,6.683-.181-2.249-.363-4.5-.363-6.683V59.083C55.3,56.9,55.481,54.649,55.663,52.4Z" transform="translate(44.873 -18.6)" fill="#fbfbfb"/>
  <path id="Path_475" data-name="Path 475" d="M56.463,44.8c.181,3.02.363,6.1.363,9.125v18.25c0,3.02-.181,6.1-.363,9.125-.181-3.02-.363-6.1-.363-9.125V53.925C56.1,50.9,56.281,47.884,56.463,44.8Z" transform="translate(45.525 -15.883)" fill="#fbfbfb"/>
  <path id="Path_476" data-name="Path 476" d="M57.163,41.6c.181,3.406.363,6.811.363,10.217V72.123c0,3.406-.181,6.811-.363,10.217-.181-3.406-.363-6.811-.363-10.217V51.817C56.981,48.411,56.981,45.006,57.163,41.6Z" transform="translate(46.095 -14.74)" fill="#fbfbfb"/>
  <path id="Path_477" data-name="Path 477" d="M57.963,37.8c.181,3.791.363,7.583.363,11.438V72.114c0,3.791-.181,7.583-.363,11.438-.181-3.791-.363-7.583-.363-11.438V49.238C57.6,45.383,57.781,41.591,57.963,37.8Z" transform="translate(46.747 -13.382)" fill="#fbfbfb"/>
  <path id="Path_478" data-name="Path 478" d="M58.763,33.3c.181,4.305.363,8.546.363,12.852v25.7c0,4.305-.181,8.546-.363,12.852-.181-4.305-.363-8.546-.363-12.852v-25.7C58.4,41.911,58.581,37.605,58.763,33.3Z" transform="translate(47.399 -11.773)" fill="#fbfbfb"/>
  <path id="Path_479" data-name="Path 479" d="M59.463,35.6c.181,4.048.363,8.1.363,12.081V71.842c0,4.048-.181,8.1-.363,12.081-.181-4.048-.363-8.1-.363-12.081V47.681C59.281,43.7,59.281,39.648,59.463,35.6Z" transform="translate(47.969 -12.595)" fill="#fbfbfb"/>
  <path id="Path_480" data-name="Path 480" d="M60.263,39.9c.181,3.6.363,7.133.363,10.731V71.965c0,3.6-.181,7.133-.363,10.731-.181-3.6-.363-7.133-.363-10.731V50.631C60.081,47.1,60.081,43.5,60.263,39.9Z" transform="translate(48.621 -14.132)" fill="#fbfbfb"/>
  <path id="Path_481" data-name="Path 481" d="M61.063,42.9c.181,3.277.363,6.49.363,9.767V72.2c0,3.277-.181,6.49-.363,9.767-.181-3.277-.363-6.49-.363-9.767V52.667C60.7,49.454,60.881,46.177,61.063,42.9Z" transform="translate(49.272 -15.204)" fill="#fbfbfb"/>
  <path id="Path_482" data-name="Path 482" d="M61.863,47.1c.181,2.827.363,5.591.363,8.418V72.482c0,2.827-.181,5.59-.363,8.418-.181-2.827-.363-5.591-.363-8.418V55.518C61.5,52.691,61.681,49.927,61.863,47.1Z" transform="translate(49.924 -16.705)" fill="#fbfbfb"/>
  <path id="Path_483" data-name="Path 483" d="M62.563,51.6c.181,2.313.363,4.627.363,7v13.88c0,2.313-.181,4.627-.363,7-.181-2.313-.363-4.627-.363-7V58.6C62.381,56.227,62.381,53.913,62.563,51.6Z" transform="translate(50.494 -18.314)" fill="#fbfbfb"/>
  <path id="Path_484" data-name="Path 484" d="M63.363,58a45.366,45.366,0,0,1,.363,4.948v9.767a45.363,45.363,0,0,1-.363,4.948A44.2,44.2,0,0,1,63,72.78V63.012A44.26,44.26,0,0,1,63.363,58Z" transform="translate(51.146 -20.601)" fill="#fbfbfb"/>
  <path id="Path_485" data-name="Path 485" d="M64.163,63.1a20.124,20.124,0,0,1,.363,3.277V72.8a20.123,20.123,0,0,1-.363,3.277A20.125,20.125,0,0,1,63.8,72.8V66.377A10.113,10.113,0,0,1,64.163,63.1Z" transform="translate(51.798 -22.424)" fill="#fbfbfb"/>
  <path id="Path_486" data-name="Path 486" d="M64.944,66.4a9.69,9.69,0,0,1,.363,2.249c0,.771.181,1.478.181,2.249a9.416,9.416,0,0,1-.181,2.249,9.69,9.69,0,0,1-.363,2.249,9.69,9.69,0,0,1-.363-2.249c0-.771-.181-1.478-.181-2.249a9.416,9.416,0,0,1,.181-2.249C64.763,67.878,64.763,67.107,64.944,66.4Z" transform="translate(52.287 -23.604)" fill="#fbfbfb"/>
  <path id="Path_487" data-name="Path 487" d="M65.744,68.8a4.071,4.071,0,0,1,.363,1.414c0,.45.181.964.181,1.414a3.8,3.8,0,0,1-.181,1.414,4.071,4.071,0,0,1-.363,1.414,4.07,4.07,0,0,1-.363-1.414c0-.45-.181-.964-.181-1.414a3.8,3.8,0,0,1,.181-1.414A4.46,4.46,0,0,1,65.744,68.8Z" transform="translate(52.939 -24.461)" fill="#fbfbfb"/>
  <path id="Path_488" data-name="Path 488" d="M66.544,66.4a9.688,9.688,0,0,1,.363,2.249c0,.771.181,1.478.181,2.249a9.417,9.417,0,0,1-.181,2.249,9.688,9.688,0,0,1-.363,2.249,9.69,9.69,0,0,1-.363-2.249c0-.771-.181-1.478-.181-2.249a9.416,9.416,0,0,1,.181-2.249A4.763,4.763,0,0,1,66.544,66.4Z" transform="translate(53.59 -23.604)" fill="#fbfbfb"/>
  <path id="Path_489" data-name="Path 489" d="M67.163,62.1a24.182,24.182,0,0,1,.363,3.6v7.2a24.183,24.183,0,0,1-.363,3.6,24.185,24.185,0,0,1-.363-3.6V65.7C66.981,64.478,66.981,63.257,67.163,62.1Z" transform="translate(54.242 -22.067)" fill="#fbfbfb"/>
  <path id="Path_490" data-name="Path 490" d="M67.963,59.2a37.56,37.56,0,0,1,.363,4.5v9a37.56,37.56,0,0,1-.363,4.5,37.563,37.563,0,0,1-.363-4.5v-9A38.655,38.655,0,0,1,67.963,59.2Z" transform="translate(54.894 -21.03)" fill="#fbfbfb"/>
  <path id="Path_491" data-name="Path 491" d="M219.863,94.389c-.182-3.92-.182-7.9-.182-11.824L219.5,70.742V23.447l.181-11.824c0-3.92.182-7.9.182-11.824.182,3.92.182,7.9.182,11.824l.181,11.824V70.742l-.181,11.824C220.044,86.485,220.044,90.469,219.863,94.389Z" transform="translate(178.651 0.2)" fill="#fbfbfb"/>
  <path id="Path_492" data-name="Path 492" d="M219.163,92.322c-.181-3.534-.181-7.068-.181-10.6l-.181-10.6V28.705l.181-10.6c0-3.534.181-7.068.181-10.6.181,3.534.181,7.068.181,10.6l.181,10.6V71.116l-.181,10.6C219.344,85.253,219.163,88.788,219.163,92.322Z" transform="translate(178.081 -2.552)" fill="#fbfbfb"/>
  <path id="Path_493" data-name="Path 493" d="M218.363,90.611c-.182-3.213-.182-6.426-.182-9.639L218,71.333V32.778l.181-9.639c0-3.213.182-6.426.182-9.639.182,3.213.182,6.426.182,9.639l.181,9.639V71.333l-.181,9.639C218.544,84.249,218.544,87.4,218.363,90.611Z" transform="translate(177.429 -4.697)" fill="#fbfbfb"/>
  <path id="Path_494" data-name="Path 494" d="M217.644,89.085c-.181-2.892-.181-5.783-.181-8.739l-.181-8.739c0-5.783-.182-11.631-.182-17.414s0-11.631.182-17.414l.181-8.739c0-2.892.181-5.783.181-8.739.182,2.892.182,5.783.182,8.739l.181,8.739c0,5.783.182,11.631.182,17.414s0,11.631-.182,17.414l-.181,8.739C217.826,83.3,217.826,86.194,217.644,89.085Z" transform="translate(176.695 -6.769)" fill="#fbfbfb"/>
  <path id="Path_495" data-name="Path 495" d="M216.863,90.226c-.181-3.084-.181-6.169-.181-9.253L216.5,71.72V34.707l.182-9.253c0-3.084.181-6.169.181-9.253.182,3.084.182,6.169.182,9.253l.181,9.253V71.72l-.181,9.253C217.044,84.058,216.863,87.142,216.863,90.226Z" transform="translate(176.207 -5.662)" fill="#fbfbfb"/>
  <path id="Path_496" data-name="Path 496" d="M216.063,90.953c-.181-3.277-.181-6.554-.181-9.832L215.7,71.29V31.963l.181-9.832c0-3.277.181-6.554.181-9.832.182,3.277.182,6.554.182,9.832l.181,9.832V71.29l-.181,9.832C216.244,84.463,216.244,87.676,216.063,90.953Z" transform="translate(175.555 -4.268)" fill="#fbfbfb"/>
  <path id="Path_497" data-name="Path 497" d="M215.263,90.455c-.181-3.149-.181-6.3-.181-9.382l-.181-9.382V34.164l.181-9.382c0-3.149.181-6.3.181-9.382.182,3.149.182,6.3.182,9.382l.181,9.382V71.691l-.181,9.382C215.444,84.221,215.444,87.306,215.263,90.455Z" transform="translate(174.903 -5.376)" fill="#fbfbfb"/>
  <path id="Path_498" data-name="Path 498" d="M214.644,88.986c-.181-2.892-.181-5.719-.181-8.611l-.181-8.611c0-5.719-.181-11.5-.181-17.221s0-11.5.181-17.221l.181-8.611c0-2.892.181-5.719.181-8.611.181,2.892.181,5.719.181,8.611l.181,8.611c0,5.719.182,11.5.182,17.221s0,11.5-.182,17.221l-.181,8.611C214.826,83.267,214.644,86.094,214.644,88.986Z" transform="translate(174.251 -7.055)" fill="#fbfbfb"/>
  <path id="Path_499" data-name="Path 499" d="M213.844,87.032c-.182-2.506-.182-5.012-.182-7.583l-.181-7.583c0-5.012-.182-10.089-.182-15.1s0-10.089.182-15.1l.181-7.583c0-2.506.182-5.012.182-7.583.181,2.506.181,5.012.181,7.583l.181,7.583c0,5.012.181,10.089.181,15.1s0,10.089-.181,15.1l-.181,7.583C214.026,82.02,214.026,84.526,213.844,87.032Z" transform="translate(173.599 -9.343)" fill="#fbfbfb"/>
  <path id="Path_500" data-name="Path 500" d="M212.963,85.107c-.181-4.305-.363-8.546-.363-12.852v-25.7c0-4.305.181-8.546.363-12.852.182,4.305.363,8.546.363,12.852v25.7C213.326,76.5,213.144,80.8,212.963,85.107Z" transform="translate(173.029 -11.916)" fill="#fbfbfb"/>
  <path id="Path_501" data-name="Path 501" d="M212.263,83.41c-.181-3.663-.363-7.326-.363-11.053V50.253c0-3.663.181-7.326.363-11.053.182,3.663.363,7.326.363,11.053V72.358C212.444,76.085,212.444,79.747,212.263,83.41Z" transform="translate(172.459 -13.882)" fill="#fbfbfb"/>
  <path id="Path_502" data-name="Path 502" d="M211.463,81.9c-.181-3.02-.363-6.1-.363-9.125V54.525c0-3.02.181-6.1.363-9.125.182,3.02.363,6.1.363,9.125v18.25C211.826,75.795,211.644,78.815,211.463,81.9Z" transform="translate(171.807 -16.098)" fill="#fbfbfb"/>
  <path id="Path_503" data-name="Path 503" d="M210.663,82.74c-.181-3.406-.363-6.811-.363-10.217V52.217c0-3.406.182-6.811.363-10.217.182,3.406.363,6.811.363,10.217V72.523C211.026,75.929,210.844,79.334,210.663,82.74Z" transform="translate(171.155 -14.883)" fill="#fbfbfb"/>
  <path id="Path_504" data-name="Path 504" d="M209.963,83.752c-.181-3.791-.363-7.583-.363-11.438V49.438c0-3.791.181-7.583.363-11.438.182,3.791.363,7.583.363,11.438V72.314C210.144,76.17,210.144,79.961,209.963,83.752Z" transform="translate(170.585 -13.453)" fill="#fbfbfb"/>
  <path id="Path_505" data-name="Path 505" d="M209.163,85.107c-.181-4.305-.363-8.546-.363-12.852v-25.7c0-4.305.181-8.546.363-12.852.182,4.305.363,8.546.363,12.852v25.7C209.526,76.5,209.344,80.8,209.163,85.107Z" transform="translate(169.933 -11.916)" fill="#fbfbfb"/>
  <path id="Path_506" data-name="Path 506" d="M208.363,84.523c-.181-4.048-.363-8.1-.363-12.081V48.281c0-4.048.181-8.1.363-12.081.182,4.048.363,8.1.363,12.081V72.442C208.726,76.426,208.544,80.474,208.363,84.523Z" transform="translate(169.282 -12.81)" fill="#fbfbfb"/>
  <path id="Path_507" data-name="Path 507" d="M207.663,83.3c-.181-3.6-.363-7.133-.363-10.731V51.231c0-3.6.181-7.133.363-10.731.182,3.6.363,7.133.363,10.731V72.565C207.844,76.1,207.844,79.7,207.663,83.3Z" transform="translate(168.711 -14.347)" fill="#fbfbfb"/>
  <path id="Path_508" data-name="Path 508" d="M206.863,82.369c-.181-3.277-.363-6.49-.363-9.767V53.067c0-3.277.182-6.49.363-9.767.181,3.277.363,6.49.363,9.767V72.6C207.226,75.815,207.044,79.092,206.863,82.369Z" transform="translate(168.059 -15.347)" fill="#fbfbfb"/>
  <path id="Path_509" data-name="Path 509" d="M206.063,81.1c-.181-2.827-.363-5.591-.363-8.418V55.718c0-2.827.181-5.591.363-8.418.181,2.827.363,5.591.363,8.418V72.682C206.426,75.51,206.244,78.273,206.063,81.1Z" transform="translate(167.408 -16.777)" fill="#fbfbfb"/>
  <path id="Path_510" data-name="Path 510" d="M205.363,79.888c-.181-2.313-.363-4.627-.363-7V59c0-2.313.181-4.627.363-7,.182,2.313.363,4.627.363,7v13.88C205.544,75.262,205.544,77.575,205.363,79.888Z" transform="translate(166.837 -18.457)" fill="#fbfbfb"/>
  <path id="Path_511" data-name="Path 511" d="M204.563,78.063a45.359,45.359,0,0,1-.363-4.948V63.348a45.366,45.366,0,0,1,.363-4.948,45.366,45.366,0,0,1,.363,4.948v9.767A44.217,44.217,0,0,1,204.563,78.063Z" transform="translate(166.185 -20.744)" fill="#fbfbfb"/>
  <path id="Path_512" data-name="Path 512" d="M203.763,76.68A20.125,20.125,0,0,1,203.4,73.4V66.977a20.127,20.127,0,0,1,.363-3.277,20.123,20.123,0,0,1,.363,3.277V73.4A20.128,20.128,0,0,1,203.763,76.68Z" transform="translate(165.534 -22.639)" fill="#fbfbfb"/>
  <path id="Path_513" data-name="Path 513" d="M203.144,75.6a9.687,9.687,0,0,1-.363-2.249c0-.771-.181-1.478-.181-2.249a9.415,9.415,0,0,1,.181-2.249,9.689,9.689,0,0,1,.363-2.249,9.688,9.688,0,0,1,.363,2.249c0,.771.181,1.478.181,2.249a9.415,9.415,0,0,1-.181,2.249C203.326,74.118,203.326,74.889,203.144,75.6Z" transform="translate(164.882 -23.675)" fill="#fbfbfb"/>
  <path id="Path_514" data-name="Path 514" d="M202.344,75.055a4.07,4.07,0,0,1-.363-1.414c0-.45-.181-.964-.181-1.414a3.8,3.8,0,0,1,.181-1.414,4.071,4.071,0,0,1,.363-1.414,4.07,4.07,0,0,1,.363,1.414c0,.45.182.964.182,1.414a3.8,3.8,0,0,1-.182,1.414A4.461,4.461,0,0,1,202.344,75.055Z" transform="translate(164.23 -24.676)" fill="#fbfbfb"/>
  <path id="Path_515" data-name="Path 515" d="M201.544,75.6a9.687,9.687,0,0,1-.363-2.249c0-.771-.181-1.478-.181-2.249a9.415,9.415,0,0,1,.181-2.249,9.689,9.689,0,0,1,.363-2.249,9.69,9.69,0,0,1,.363,2.249c0,.771.181,1.478.181,2.249a9.415,9.415,0,0,1-.181,2.249A9.169,9.169,0,0,1,201.544,75.6Z" transform="translate(163.578 -23.675)" fill="#fbfbfb"/>
  <path id="Path_516" data-name="Path 516" d="M200.763,76.894a24.185,24.185,0,0,1-.363-3.6V66.1a24.187,24.187,0,0,1,.363-3.6,24.179,24.179,0,0,1,.363,3.6v7.2C200.944,74.516,200.944,75.737,200.763,76.894Z" transform="translate(163.09 -22.21)" fill="#fbfbfb"/>
  <path id="Path_517" data-name="Path 517" d="M199.963,77.792a37.564,37.564,0,0,1-.363-4.5v-9a37.568,37.568,0,0,1,.363-4.5,37.565,37.565,0,0,1,.363,4.5v9A38.661,38.661,0,0,1,199.963,77.792Z" transform="translate(162.438 -21.245)" fill="#fbfbfb"/>
  <path id="Path_518" data-name="Path 518" d="M199.163,76.894a24.181,24.181,0,0,1-.363-3.6V66.1a24.185,24.185,0,0,1,.363-3.6,24.179,24.179,0,0,1,.363,3.6v7.2A23.346,23.346,0,0,1,199.163,76.894Z" transform="translate(161.786 -22.21)" fill="#fbfbfb"/>
  <path id="Path_519" data-name="Path 519" d="M198.544,75.6a9.689,9.689,0,0,1-.363-2.249c0-.771-.181-1.478-.181-2.249a9.415,9.415,0,0,1,.181-2.249,9.689,9.689,0,0,1,.363-2.249,9.687,9.687,0,0,1,.363,2.249c0,.771.181,1.478.181,2.249a9.416,9.416,0,0,1-.181,2.249C198.726,74.118,198.726,74.889,198.544,75.6Z" transform="translate(161.134 -23.675)" fill="#fbfbfb"/>
  <path id="Path_520" data-name="Path 520" d="M197.744,75.055a4.07,4.07,0,0,1-.363-1.414c0-.45-.181-.964-.181-1.414a3.8,3.8,0,0,1,.181-1.414,4.071,4.071,0,0,1,.363-1.414,4.07,4.07,0,0,1,.363,1.414c0,.45.182.964.182,1.414a3.8,3.8,0,0,1-.182,1.414C197.926,74.091,197.926,74.541,197.744,75.055Z" transform="translate(160.482 -24.676)" fill="#fbfbfb"/>
  <path id="Path_521" data-name="Path 521" d="M196.944,74.227c-.181-.257-.363-.45-.363-.707s-.181-.45-.181-.707a1.041,1.041,0,0,1,.181-.707c0-.257.181-.45.363-.707.181.257.363.45.363.707s.181.45.181.707a1.041,1.041,0,0,1-.181.707A1.138,1.138,0,0,1,196.944,74.227Z" transform="translate(159.831 -25.391)" fill="#fbfbfb"/>
  <path id="Path_522" data-name="Path 522" d="M196.244,75.055a4.071,4.071,0,0,1-.363-1.414c0-.45-.181-.964-.181-1.414a3.8,3.8,0,0,1,.181-1.414,4.071,4.071,0,0,1,.363-1.414,4.07,4.07,0,0,1,.363,1.414c0,.45.181.964.181,1.414a3.8,3.8,0,0,1-.181,1.414C196.426,74.091,196.426,74.541,196.244,75.055Z" transform="translate(159.26 -24.676)" fill="#fbfbfb"/>
  <path id="Path_523" data-name="Path 523" d="M195.363,76.188A14.421,14.421,0,0,1,195,73.425v-2.7a14.15,14.15,0,0,1,.181-2.763,14.423,14.423,0,0,1,.363-2.763,14.421,14.421,0,0,1,.363,2.763c0,.9.182,1.863.182,2.763v2.7A7.474,7.474,0,0,0,195.363,76.188Z" transform="translate(158.69 -23.175)" fill="#fbfbfb"/>
  <path id="Path_524" data-name="Path 524" d="M194.563,77.35a31.464,31.464,0,0,1-.363-4.113V65.013a31.467,31.467,0,0,1,.363-4.113,31.459,31.459,0,0,1,.363,4.113v8.225A31.456,31.456,0,0,1,194.563,77.35Z" transform="translate(158.038 -21.638)" fill="#fbfbfb"/>
  <path id="Path_525" data-name="Path 525" d="M193.763,79.888c-.181-2.313-.363-4.627-.363-7V59c0-2.313.181-4.627.363-7,.181,2.313.363,4.627.363,7v13.88A44.894,44.894,0,0,1,193.763,79.888Z" transform="translate(157.386 -18.457)" fill="#fbfbfb"/>
  <path id="Path_526" data-name="Path 526" d="M193.063,82.94c-.181-3.47-.363-6.94-.363-10.41V51.71c0-3.47.181-6.94.363-10.41.182,3.47.363,6.94.363,10.41V72.53C193.244,76,193.244,79.47,193.063,82.94Z" transform="translate(156.816 -14.632)" fill="#fbfbfb"/>
  <path id="Path_527" data-name="Path 527" d="M192.344,85.663c-.182-2.249-.182-4.434-.182-6.683l-.181-6.683c0-4.434-.181-8.932-.181-13.366s0-8.932.181-13.366l.181-6.683c0-2.249.182-4.434.182-6.683.181,2.249.181,4.434.181,6.683l.181,6.683c0,4.434.182,8.932.182,13.366s0,8.932-.182,13.366l-.181,6.683C192.526,81.165,192.526,83.414,192.344,85.663Z" transform="translate(156.083 -11.38)" fill="#fbfbfb"/>
  <path id="Path_528" data-name="Path 528" d="M191.544,87.93c-.182-2.7-.182-5.333-.182-8.032l-.181-8.032c0-5.334-.181-10.667-.181-16s0-10.667.181-16l.181-8.032c0-2.7.182-5.334.182-8.032.181,2.7.181,5.333.181,8.032l.182,8.032c0,5.333.181,10.667.181,16s0,10.667-.181,16l-.182,8.032C191.726,82.6,191.726,85.232,191.544,87.93Z" transform="translate(155.431 -8.378)" fill="#fbfbfb"/>
  <path id="Path_529" data-name="Path 529" d="M190.844,86.833c-.182-2.442-.182-4.884-.182-7.326l-.181-7.326c0-4.884-.181-9.832-.181-14.715s0-9.832.181-14.715l.181-7.326c0-2.442.182-4.884.182-7.326.181,2.442.181,4.884.181,7.326l.181,7.326c0,4.884.182,9.832.182,14.715s0,9.832-.182,14.715l-.181,7.326C191.026,81.885,190.844,84.391,190.844,86.833Z" transform="translate(154.861 -9.915)" fill="#fbfbfb"/>
  <path id="Path_530" data-name="Path 530" d="M189.963,84.523c-.181-4.048-.363-8.1-.363-12.081V48.281c0-4.048.181-8.1.363-12.081.182,4.048.363,8.1.363,12.081V72.442C190.326,76.426,190.144,80.474,189.963,84.523Z" transform="translate(154.291 -12.81)" fill="#fbfbfb"/>
  <path id="Path_531" data-name="Path 531" d="M189.244,85.92c-.181-2.313-.181-4.627-.181-6.94l-.181-6.94c0-4.627-.182-9.253-.182-13.88s0-9.253.182-13.88l.181-6.94c0-2.313.181-4.627.181-6.94.182,2.313.182,4.627.182,6.94l.181,6.94c0,4.627.182,9.253.182,13.88s0,9.253-.182,13.88l-.181,6.94C189.426,81.293,189.426,83.606,189.244,85.92Z" transform="translate(153.557 -10.737)" fill="#fbfbfb"/>
  <path id="Path_532" data-name="Path 532" d="M188.463,83.752c-.181-3.791-.363-7.583-.363-11.438V49.438c0-3.791.181-7.583.363-11.438.182,3.791.363,7.583.363,11.438V72.314C188.644,76.17,188.644,79.961,188.463,83.752Z" transform="translate(153.068 -13.453)" fill="#fbfbfb"/>
  <path id="Path_533" data-name="Path 533" d="M187.663,81.9c-.181-3.02-.363-6.1-.363-9.125V54.525c0-3.02.181-6.1.363-9.125.182,3.02.363,6.1.363,9.125v18.25C188.026,75.795,187.844,78.815,187.663,81.9Z" transform="translate(152.417 -16.098)" fill="#fbfbfb"/>
  <path id="Path_534" data-name="Path 534" d="M186.863,79.161c-.181-1.992-.363-4.048-.363-6.04V61.04c0-1.992.181-4.048.363-6.04.182,1.992.363,4.048.363,6.04V73.121C187.226,75.113,187.044,77.105,186.863,79.161Z" transform="translate(151.765 -19.529)" fill="#fbfbfb"/>
  <path id="Path_535" data-name="Path 535" d="M186.163,81.1c-.181-2.827-.363-5.591-.363-8.418V55.718c0-2.827.181-5.591.363-8.418.182,2.827.363,5.591.363,8.418V72.682C186.344,75.51,186.344,78.273,186.163,81.1Z" transform="translate(151.195 -16.777)" fill="#fbfbfb"/>
  <path id="Path_536" data-name="Path 536" d="M185.363,83.752c-.181-3.791-.363-7.583-.363-11.438V49.438c0-3.791.182-7.583.363-11.438.181,3.791.363,7.583.363,11.438V72.314C185.726,76.17,185.544,79.961,185.363,83.752Z" transform="translate(150.543 -13.453)" fill="#fbfbfb"/>
  <path id="Path_537" data-name="Path 537" d="M184.563,81.1c-.181-2.827-.363-5.591-.363-8.418V55.718c0-2.827.181-5.591.363-8.418.182,2.827.363,5.591.363,8.418V72.682C184.926,75.51,184.744,78.273,184.563,81.1Z" transform="translate(149.891 -16.777)" fill="#fbfbfb"/>
  <path id="Path_538" data-name="Path 538" d="M183.863,78.063a45.366,45.366,0,0,1-.363-4.948V63.348a45.374,45.374,0,0,1,.363-4.948,45.363,45.363,0,0,1,.363,4.948v9.767C184.044,74.786,184.044,76.457,183.863,78.063Z" transform="translate(149.321 -20.744)" fill="#fbfbfb"/>
  <path id="Path_539" data-name="Path 539" d="M183.063,76.188a14.423,14.423,0,0,1-.363-2.763v-2.7a14.147,14.147,0,0,1,.181-2.763,14.423,14.423,0,0,1,.363-2.763,14.42,14.42,0,0,1,.363,2.763c0,.9.182,1.863.182,2.763v2.7A14.219,14.219,0,0,0,183.063,76.188Z" transform="translate(148.669 -23.175)" fill="#fbfbfb"/>
  <path id="Path_540" data-name="Path 540" d="M182.344,75.055a4.07,4.07,0,0,1-.363-1.414c0-.45-.181-.964-.181-1.414a3.8,3.8,0,0,1,.181-1.414,4.071,4.071,0,0,1,.363-1.414,4.071,4.071,0,0,1,.363,1.414c0,.45.181.964.181,1.414a3.8,3.8,0,0,1-.181,1.414A4.461,4.461,0,0,1,182.344,75.055Z" transform="translate(147.936 -24.676)" fill="#fbfbfb"/>
  <path id="Path_541" data-name="Path 541" d="M181.563,75.86a11.934,11.934,0,0,1-.363-2.506V70.912a11.661,11.661,0,0,1,.181-2.506,11.935,11.935,0,0,1,.363-2.506,11.933,11.933,0,0,1,.363,2.506c0,.835.181,1.671.181,2.506v2.442A6.569,6.569,0,0,0,181.563,75.86Z" transform="translate(147.447 -23.425)" fill="#fbfbfb"/>
  <path id="Path_542" data-name="Path 542" d="M180.763,77.792a37.561,37.561,0,0,1-.363-4.5v-9a37.562,37.562,0,0,1,.363-4.5,37.556,37.556,0,0,1,.363,4.5v9A38.664,38.664,0,0,1,180.763,77.792Z" transform="translate(146.795 -21.245)" fill="#fbfbfb"/>
  <path id="Path_543" data-name="Path 543" d="M179.963,79.3c-.181-2.121-.363-4.241-.363-6.426V60.026c0-2.121.181-4.241.363-6.426.182,2.121.363,4.241.363,6.426V72.878C180.326,75.063,180.144,77.183,179.963,79.3Z" transform="translate(146.143 -19.029)" fill="#fbfbfb"/>
  <path id="Path_544" data-name="Path 544" d="M179.263,78.405a52.653,52.653,0,0,1-.363-5.334V62.533a52.661,52.661,0,0,1,.363-5.333,52.648,52.648,0,0,1,.363,5.333V73.072C179.444,74.871,179.444,76.67,179.263,78.405Z" transform="translate(145.573 -20.315)" fill="#fbfbfb"/>
  <path id="Path_545" data-name="Path 545" d="M178.463,77.008a25.912,25.912,0,0,1-.363-3.727V65.827a25.918,25.918,0,0,1,.363-3.727,25.908,25.908,0,0,1,.363,3.727v7.454A25.049,25.049,0,0,1,178.463,77.008Z" transform="translate(144.921 -22.067)" fill="#fbfbfb"/>
  <path id="Path_546" data-name="Path 546" d="M177.663,75.86a11.933,11.933,0,0,1-.363-2.506V70.912a11.659,11.659,0,0,1,.182-2.506,11.933,11.933,0,0,1,.363-2.506,11.936,11.936,0,0,1,.363,2.506c0,.835.182,1.671.182,2.506v2.442A13.051,13.051,0,0,0,177.663,75.86Z" transform="translate(144.269 -23.425)" fill="#fbfbfb"/>
  <path id="Path_547" data-name="Path 547" d="M177.044,75.283a5.971,5.971,0,0,1-.363-1.671c0-.578-.181-1.157-.181-1.671a5.058,5.058,0,0,1,.181-1.671,5.137,5.137,0,0,1,.363-1.671,5.972,5.972,0,0,1,.363,1.671c0,.578.182,1.157.182,1.671a5.057,5.057,0,0,1-.182,1.671C177.226,74.126,177.226,74.7,177.044,75.283Z" transform="translate(143.618 -24.39)" fill="#fbfbfb"/>
  <path id="Path_548" data-name="Path 548" d="M176.244,74.67a2.593,2.593,0,0,1-.363-1.092c0-.386-.181-.707-.181-1.092a2.316,2.316,0,0,1,.181-1.092,2.593,2.593,0,0,1,.363-1.092,2.593,2.593,0,0,1,.363,1.092c0,.386.181.707.181,1.092a2.316,2.316,0,0,1-.181,1.092A2.918,2.918,0,0,1,176.244,74.67Z" transform="translate(142.966 -24.997)" fill="#fbfbfb"/>
  <path id="Path_549" data-name="Path 549" d="M151.563,55.4c.182,1.928.363,3.92.363,5.848V73.071c0,1.928-.182,3.92-.363,5.848-.181-1.928-.363-3.92-.363-5.848V61.248C151.381,59.32,151.381,57.392,151.563,55.4Z" transform="translate(123.005 -19.672)" fill="#fbfbfb"/>
  <path id="Path_550" data-name="Path 550" d="M150.863,42c.182,3.406.363,6.811.363,10.217V72.523c0,3.406-.182,6.811-.363,10.217-.181-3.406-.363-6.811-.363-10.217V52.217C150.5,48.811,150.681,45.406,150.863,42Z" transform="translate(122.435 -14.883)" fill="#fbfbfb"/>
  <path id="Path_551" data-name="Path 551" d="M150.144,25.9c.182,2.57.182,5.141.182,7.711l.181,7.711c0,5.141.181,10.217.181,15.358s0,10.217-.181,15.358l-.181,7.711c0,2.57-.182,5.141-.182,7.711-.181-2.57-.181-5.141-.181-7.711l-.182-7.711c0-5.141-.181-10.217-.181-15.358s0-10.217.181-15.358l.182-7.711C149.963,30.976,149.963,28.47,150.144,25.9Z" transform="translate(121.701 -9.128)" fill="#fbfbfb"/>
  <path id="Path_552" data-name="Path 552" d="M149.263,15.2c.181,3.149.181,6.3.181,9.382l.182,9.382V71.491l-.182,9.382c0,3.149-.181,6.3-.181,9.382-.181-3.149-.181-6.3-.181-9.382l-.181-9.382V33.964l.181-9.382C149.263,21.433,149.263,18.284,149.263,15.2Z" transform="translate(121.131 -5.304)" fill="#fbfbfb"/>
  <path id="Path_553" data-name="Path 553" d="M148.644,20.1c.181,2.892.181,5.719.181,8.611l.182,8.611c0,5.719.181,11.5.181,17.221s0,11.5-.181,17.221l-.182,8.611c0,2.892-.181,5.719-.181,8.611-.181-2.892-.181-5.719-.181-8.611l-.181-8.611c0-5.719-.181-11.5-.181-17.221s0-11.5.181-17.221l.181-8.611C148.463,25.819,148.463,22.927,148.644,20.1Z" transform="translate(120.479 -7.055)" fill="#fbfbfb"/>
  <path id="Path_554" data-name="Path 554" d="M147.844,26.7c.181,2.506.181,5.012.181,7.583l.182,7.583c0,5.012.181,10.089.181,15.1s0,10.089-.181,15.1l-.182,7.583c0,2.506-.181,5.012-.181,7.583-.181-2.506-.181-5.012-.181-7.583l-.181-7.583c0-5.012-.181-10.089-.181-15.1s0-10.089.181-15.1l.181-7.583C147.663,31.712,147.663,29.206,147.844,26.7Z" transform="translate(119.828 -9.414)" fill="#fbfbfb"/>
  <path id="Path_555" data-name="Path 555" d="M146.963,33.7c.182,4.305.363,8.546.363,12.852v25.7c0,4.305-.181,8.546-.363,12.852-.181-4.305-.363-8.546-.363-12.852v-25.7C146.781,42.246,146.781,38.005,146.963,33.7Z" transform="translate(119.257 -11.916)" fill="#fbfbfb"/>
  <path id="Path_556" data-name="Path 556" d="M146.263,39.3c.181,3.663.363,7.326.363,11.053V72.458c0,3.663-.182,7.326-.363,11.053-.181-3.663-.363-7.326-.363-11.053V50.353C145.9,46.69,146.081,43.027,146.263,39.3Z" transform="translate(118.687 -13.918)" fill="#fbfbfb"/>
  <path id="Path_557" data-name="Path 557" d="M145.463,45.2c.182,3.02.363,6.1.363,9.125v18.25c0,3.02-.181,6.1-.363,9.125-.182-3.02-.363-6.1-.363-9.125V54.325C145.1,51.3,145.281,48.284,145.463,45.2Z" transform="translate(118.035 -16.026)" fill="#fbfbfb"/>
  <path id="Path_558" data-name="Path 558" d="M144.663,42c.181,3.406.363,6.811.363,10.217V72.523c0,3.406-.181,6.811-.363,10.217-.181-3.406-.363-6.811-.363-10.217V52.217C144.481,48.811,144.481,45.406,144.663,42Z" transform="translate(117.383 -14.883)" fill="#fbfbfb"/>
  <path id="Path_559" data-name="Path 559" d="M143.963,38.2c.181,3.791.363,7.583.363,11.438V72.514c0,3.791-.182,7.583-.363,11.438-.181-3.791-.363-7.583-.363-11.438V49.638C143.6,45.783,143.781,41.991,143.963,38.2Z" transform="translate(116.813 -13.525)" fill="#fbfbfb"/>
  <path id="Path_560" data-name="Path 560" d="M143.163,33.7c.182,4.305.363,8.546.363,12.852v25.7c0,4.305-.181,8.546-.363,12.852-.182-4.305-.363-8.546-.363-12.852v-25.7C142.8,42.246,142.981,38.005,143.163,33.7Z" transform="translate(116.161 -11.916)" fill="#fbfbfb"/>
  <path id="Path_561" data-name="Path 561" d="M142.363,36c.182,4.048.363,8.1.363,12.081V72.242c0,4.048-.181,8.1-.363,12.081-.182-4.048-.363-8.1-.363-12.081V48.081C142.181,44.1,142.181,40.048,142.363,36Z" transform="translate(115.51 -12.738)" fill="#fbfbfb"/>
  <path id="Path_562" data-name="Path 562" d="M141.663,40.3c.182,3.6.363,7.133.363,10.731V72.365c0,3.6-.181,7.133-.363,10.731-.181-3.6-.363-7.133-.363-10.731V51.031C141.3,47.433,141.481,43.9,141.663,40.3Z" transform="translate(114.939 -14.275)" fill="#fbfbfb"/>
  <path id="Path_563" data-name="Path 563" d="M140.863,43.3c.182,3.277.363,6.49.363,9.767V72.6c0,3.277-.182,6.49-.363,9.767-.181-3.277-.363-6.49-.363-9.767V53.067C140.5,49.79,140.681,46.577,140.863,43.3Z" transform="translate(114.287 -15.347)" fill="#fbfbfb"/>
  <path id="Path_564" data-name="Path 564" d="M140.063,47.5c.182,2.827.363,5.591.363,8.418V72.882c0,2.827-.181,5.591-.363,8.418-.181-2.827-.363-5.591-.363-8.418V55.918C139.881,53.091,139.881,50.327,140.063,47.5Z" transform="translate(113.636 -16.848)" fill="#fbfbfb"/>
  <path id="Path_565" data-name="Path 565" d="M139.363,51.9c.182,2.313.363,4.627.363,7v13.88c0,2.313-.181,4.627-.363,7-.181-2.313-.363-4.627-.363-7V58.9C139,56.591,139.181,54.278,139.363,51.9Z" transform="translate(113.065 -18.421)" fill="#fbfbfb"/>
  <path id="Path_566" data-name="Path 566" d="M138.563,58.4a45.366,45.366,0,0,1,.363,4.948v9.767a45.374,45.374,0,0,1-.363,4.948,45.367,45.367,0,0,1-.363-4.948V63.348A44.221,44.221,0,0,1,138.563,58.4Z" transform="translate(112.414 -20.744)" fill="#fbfbfb"/>
  <path id="Path_567" data-name="Path 567" d="M137.763,63.5a20.125,20.125,0,0,1,.363,3.277V73.2a20.127,20.127,0,0,1-.363,3.277A20.123,20.123,0,0,1,137.4,73.2V66.777C137.581,65.685,137.581,64.592,137.763,63.5Z" transform="translate(111.762 -22.567)" fill="#fbfbfb"/>
  <path id="Path_568" data-name="Path 568" d="M137.144,66.7a9.688,9.688,0,0,1,.363,2.249c0,.771.181,1.478.181,2.249a9.415,9.415,0,0,1-.181,2.249,9.69,9.69,0,0,1-.363,2.249,9.688,9.688,0,0,1-.363-2.249c0-.771-.181-1.478-.181-2.249a9.415,9.415,0,0,1,.181-2.249A9.69,9.69,0,0,1,137.144,66.7Z" transform="translate(111.11 -23.711)" fill="#fbfbfb"/>
  <path id="Path_569" data-name="Path 569" d="M136.344,69.2a4.071,4.071,0,0,1,.363,1.414c0,.45.181.964.181,1.414a3.8,3.8,0,0,1-.181,1.414,4.071,4.071,0,0,1-.363,1.414,4.071,4.071,0,0,1-.363-1.414c0-.45-.181-.964-.181-1.414a3.8,3.8,0,0,1,.181-1.414A4.46,4.46,0,0,1,136.344,69.2Z" transform="translate(110.458 -24.604)" fill="#fbfbfb"/>
  <path id="Path_570" data-name="Path 570" d="M135.544,66.7a9.689,9.689,0,0,1,.363,2.249c0,.771.181,1.478.181,2.249a9.416,9.416,0,0,1-.181,2.249,9.689,9.689,0,0,1-.363,2.249,9.689,9.689,0,0,1-.363-2.249c0-.771-.181-1.478-.181-2.249a9.416,9.416,0,0,1,.181-2.249C135.363,68.178,135.363,67.471,135.544,66.7Z" transform="translate(109.806 -23.711)" fill="#fbfbfb"/>
  <path id="Path_571" data-name="Path 571" d="M134.763,62.4a24.181,24.181,0,0,1,.363,3.6v7.2a24.183,24.183,0,0,1-.363,3.6,24.181,24.181,0,0,1-.363-3.6V66A25.06,25.06,0,0,1,134.763,62.4Z" transform="translate(109.318 -22.174)" fill="#fbfbfb"/>
  <path id="Path_572" data-name="Path 572" d="M133.963,59.6a37.568,37.568,0,0,1,.363,4.5v9a37.568,37.568,0,0,1-.363,4.5,37.555,37.555,0,0,1-.363-4.5v-9A37.555,37.555,0,0,1,133.963,59.6Z" transform="translate(108.666 -21.173)" fill="#fbfbfb"/>
  <path id="Path_573" data-name="Path 573" d="M133.163,62.4a24.179,24.179,0,0,1,.363,3.6v7.2a24.183,24.183,0,0,1-.363,3.6,24.183,24.183,0,0,1-.363-3.6V66C132.981,64.842,132.981,63.621,133.163,62.4Z" transform="translate(108.014 -22.174)" fill="#fbfbfb"/>
  <path id="Path_574" data-name="Path 574" d="M132.544,66.7a9.688,9.688,0,0,1,.363,2.249c0,.771.181,1.478.181,2.249a9.416,9.416,0,0,1-.181,2.249,9.687,9.687,0,0,1-.363,2.249,9.69,9.69,0,0,1-.363-2.249c0-.771-.181-1.478-.181-2.249a9.415,9.415,0,0,1,.181-2.249A4.894,4.894,0,0,1,132.544,66.7Z" transform="translate(107.362 -23.711)" fill="#fbfbfb"/>
  <path id="Path_575" data-name="Path 575" d="M131.744,69.2a4.071,4.071,0,0,1,.363,1.414c0,.45.181.964.181,1.414a3.8,3.8,0,0,1-.181,1.414,4.071,4.071,0,0,1-.363,1.414,4.07,4.07,0,0,1-.363-1.414c0-.45-.181-.964-.181-1.414a3.8,3.8,0,0,1,.181-1.414A4.46,4.46,0,0,1,131.744,69.2Z" transform="translate(106.711 -24.604)" fill="#fbfbfb"/>
  <path id="Path_576" data-name="Path 576" d="M130.944,71.5c.181.257.363.45.363.707s.181.45.181.707a1.041,1.041,0,0,1-.181.707c0,.257-.182.45-.363.707-.182-.257-.363-.45-.363-.707s-.181-.45-.181-.707a1.041,1.041,0,0,1,.181-.707C130.763,72.014,130.763,71.757,130.944,71.5Z" transform="translate(106.059 -25.426)" fill="#fbfbfb"/>
  <path id="Path_577" data-name="Path 577" d="M130.244,69.2a4.07,4.07,0,0,1,.363,1.414c0,.45.181.964.181,1.414a3.8,3.8,0,0,1-.181,1.414,4.071,4.071,0,0,1-.363,1.414,4.071,4.071,0,0,1-.363-1.414c0-.45-.181-.964-.181-1.414a3.8,3.8,0,0,1,.181-1.414A2.167,2.167,0,0,1,130.244,69.2Z" transform="translate(105.488 -24.604)" fill="#fbfbfb"/>
  <path id="Path_578" data-name="Path 578" d="M129.526,65.1a14.422,14.422,0,0,1,.363,2.763v2.7a14.147,14.147,0,0,1-.181,2.763,14.422,14.422,0,0,1-.363,2.763,14.42,14.42,0,0,1-.363-2.763c0-.9-.182-1.864-.182-2.763v-2.7A15.533,15.533,0,0,0,129.526,65.1Z" transform="translate(104.755 -23.139)" fill="#fbfbfb"/>
  <path id="Path_579" data-name="Path 579" d="M128.563,60.8a31.466,31.466,0,0,1,.363,4.113v8.225a31.467,31.467,0,0,1-.363,4.113,31.462,31.462,0,0,1-.363-4.113V64.913C128.381,63.563,128.381,62.214,128.563,60.8Z" transform="translate(104.266 -21.602)" fill="#fbfbfb"/>
  <path id="Path_580" data-name="Path 580" d="M127.863,51.9c.181,2.313.363,4.627.363,7v13.88c0,2.313-.181,4.627-.363,7-.181-2.313-.363-4.627-.363-7V58.9A45.724,45.724,0,0,1,127.863,51.9Z" transform="translate(103.696 -18.421)" fill="#fbfbfb"/>
  <path id="Path_581" data-name="Path 581" d="M127.063,41.3c.181,3.47.363,6.94.363,10.41V72.53c0,3.47-.181,6.94-.363,10.41-.181-3.47-.363-6.94-.363-10.41V51.71C126.7,48.24,126.881,44.77,127.063,41.3Z" transform="translate(103.044 -14.632)" fill="#fbfbfb"/>
  <path id="Path_582" data-name="Path 582" d="M126.263,44c.181,3.149.363,6.362.363,9.51V72.531c0,3.149-.181,6.362-.363,9.51-.181-3.149-.363-6.362-.363-9.51V53.51C125.9,50.362,126.081,47.149,126.263,44Z" transform="translate(102.392 -15.598)" fill="#fbfbfb"/>
  <path id="Path_583" data-name="Path 583" d="M125.463,38.2c.181,3.791.363,7.583.363,11.438V72.514c0,3.791-.181,7.583-.363,11.438-.181-3.791-.363-7.583-.363-11.438V49.638C125.281,45.783,125.281,41.991,125.463,38.2Z" transform="translate(101.741 -13.525)" fill="#fbfbfb"/>
  <path id="Path_584" data-name="Path 584" d="M124.763,41.1c.181,3.47.363,7,.363,10.474V72.651c0,3.47-.181,7-.363,10.474-.181-3.47-.363-7-.363-10.474V51.574C124.4,48.04,124.581,44.57,124.763,41.1Z" transform="translate(101.17 -14.561)" fill="#fbfbfb"/>
  <path id="Path_585" data-name="Path 585" d="M123.963,36c.181,4.048.363,8.1.363,12.081V72.242c0,4.048-.181,8.1-.363,12.081-.181-4.048-.363-8.1-.363-12.081V48.081C123.6,44.1,123.781,40.048,123.963,36Z" transform="translate(100.519 -12.738)" fill="#fbfbfb"/>
  <path id="Path_586" data-name="Path 586" d="M123.244,32.8c.181,2.185.181,4.37.181,6.554l.181,6.554c0,4.37.181,8.739.181,13.109s0,8.739-.181,13.109l-.181,6.554c0,2.185-.181,4.37-.181,6.554-.181-2.185-.181-4.37-.181-6.554l-.181-6.554c0-4.37-.181-8.739-.181-13.109s0-8.739.181-13.109l.181-6.554C123.244,37.17,123.244,34.985,123.244,32.8Z" transform="translate(99.785 -11.595)" fill="#fbfbfb"/>
  <path id="Path_587" data-name="Path 587" d="M122.463,38.2c.181,3.791.363,7.583.363,11.438V72.514c0,3.791-.181,7.583-.363,11.438-.181-3.791-.363-7.583-.363-11.438V49.638C122.1,45.783,122.281,41.991,122.463,38.2Z" transform="translate(99.297 -13.525)" fill="#fbfbfb"/>
  <path id="Path_588" data-name="Path 588" d="M121.663,45.2c.181,3.02.363,6.1.363,9.125v18.25c0,3.02-.181,6.1-.363,9.125-.181-3.02-.363-6.1-.363-9.125V54.325C121.3,51.3,121.481,48.284,121.663,45.2Z" transform="translate(98.645 -16.026)" fill="#fbfbfb"/>
  <path id="Path_589" data-name="Path 589" d="M120.863,54.8c.181,1.992.363,4.048.363,6.04V72.921c0,1.992-.181,4.048-.363,6.04-.181-1.992-.363-4.048-.363-6.04V60.84C120.681,58.848,120.681,56.792,120.863,54.8Z" transform="translate(97.993 -19.458)" fill="#fbfbfb"/>
  <path id="Path_590" data-name="Path 590" d="M120.163,50.3c.181,2.506.363,5.012.363,7.518V72.726c0,2.506-.181,5.012-.363,7.518-.181-2.506-.363-5.012-.363-7.518V57.818C119.8,55.312,119.981,52.806,120.163,50.3Z" transform="translate(97.423 -17.849)" fill="#fbfbfb"/>
  <path id="Path_591" data-name="Path 591" d="M119.363,44.8c.181,3.084.363,6.169.363,9.253V72.56c0,3.084-.181,6.169-.363,9.253-.181-3.084-.363-6.169-.363-9.253V54.053C119,51.033,119.181,47.949,119.363,44.8Z" transform="translate(96.771 -15.883)" fill="#fbfbfb"/>
  <path id="Path_592" data-name="Path 592" d="M118.563,50.3c.181,2.506.363,5.012.363,7.518V72.726c0,2.506-.181,5.012-.363,7.518-.181-2.506-.363-5.012-.363-7.518V57.818C118.381,55.312,118.381,52.806,118.563,50.3Z" transform="translate(96.119 -17.849)" fill="#fbfbfb"/>
  <path id="Path_593" data-name="Path 593" d="M117.863,58.4a45.368,45.368,0,0,1,.363,4.948v9.767a45.369,45.369,0,0,1-.363,4.948,45.371,45.371,0,0,1-.363-4.948V63.348A44.221,44.221,0,0,1,117.863,58.4Z" transform="translate(95.549 -20.744)" fill="#fbfbfb"/>
  <path id="Path_594" data-name="Path 594" d="M117.226,65.1a14.422,14.422,0,0,1,.363,2.763v2.7a14.15,14.15,0,0,1-.181,2.763,14.422,14.422,0,0,1-.363,2.763,14.422,14.422,0,0,1-.363-2.763c0-.9-.181-1.864-.181-2.763v-2.7A15.533,15.533,0,0,0,117.226,65.1Z" transform="translate(94.734 -23.139)" fill="#fbfbfb"/>
  <path id="Path_595" data-name="Path 595" d="M116.344,69.2a4.071,4.071,0,0,1,.363,1.414c0,.45.181.964.181,1.414a3.8,3.8,0,0,1-.181,1.414,4.071,4.071,0,0,1-.363,1.414,4.071,4.071,0,0,1-.363-1.414c0-.45-.181-.964-.181-1.414a3.8,3.8,0,0,1,.181-1.414C116.163,70.164,116.163,69.714,116.344,69.2Z" transform="translate(94.164 -24.604)" fill="#fbfbfb"/>
  <path id="Path_596" data-name="Path 596" d="M115.726,66a11.933,11.933,0,0,1,.363,2.506v2.442a11.662,11.662,0,0,1-.181,2.506,11.935,11.935,0,0,1-.363,2.506,11.934,11.934,0,0,1-.363-2.506c0-.835-.181-1.671-.181-2.506V68.506A16.364,16.364,0,0,0,115.726,66Z" transform="translate(93.512 -23.461)" fill="#fbfbfb"/>
  <path id="Path_597" data-name="Path 597" d="M114.763,62a25.913,25.913,0,0,1,.363,3.727v7.454a25.913,25.913,0,0,1-.363,3.727,25.912,25.912,0,0,1-.363-3.727V65.727A25.912,25.912,0,0,1,114.763,62Z" transform="translate(93.023 -22.031)" fill="#fbfbfb"/>
  <path id="Path_598" data-name="Path 598" d="M113.963,58.4a45.365,45.365,0,0,1,.363,4.948v9.767a45.365,45.365,0,0,1-.363,4.948,45.367,45.367,0,0,1-.363-4.948V63.348C113.781,61.677,113.781,60.006,113.963,58.4Z" transform="translate(92.371 -20.744)" fill="#fbfbfb"/>
  <path id="Path_599" data-name="Path 599" d="M113.263,61a30.509,30.509,0,0,1,.363,4.113v8.225a32.469,32.469,0,0,1-.363,4.113,30.512,30.512,0,0,1-.363-4.113V65.113A30.511,30.511,0,0,1,113.263,61Z" transform="translate(91.801 -21.673)" fill="#fbfbfb"/>
  <path id="Path_600" data-name="Path 600" d="M112.463,64a17.874,17.874,0,0,1,.363,3.084v6.169a17.874,17.874,0,0,1-.363,3.084,17.872,17.872,0,0,1-.363-3.084V67.084A17.87,17.87,0,0,1,112.463,64Z" transform="translate(91.149 -22.746)" fill="#fbfbfb"/>
  <path id="Path_601" data-name="Path 601" d="M111.826,66a11.935,11.935,0,0,1,.363,2.506v2.442a11.661,11.661,0,0,1-.181,2.506,11.934,11.934,0,0,1-.363,2.506,11.935,11.935,0,0,1-.363-2.506c0-.835-.181-1.671-.181-2.506V68.506A7.282,7.282,0,0,0,111.826,66Z" transform="translate(90.335 -23.461)" fill="#fbfbfb"/>
  <path id="Path_602" data-name="Path 602" d="M111.044,68.4a5.971,5.971,0,0,1,.363,1.671c0,.578.181,1.157.181,1.671a5.059,5.059,0,0,1-.181,1.671,5.137,5.137,0,0,1-.363,1.671,5.972,5.972,0,0,1-.363-1.671c0-.578-.181-1.157-.181-1.671a5.058,5.058,0,0,1,.181-1.671A5.971,5.971,0,0,1,111.044,68.4Z" transform="translate(89.846 -24.318)" fill="#fbfbfb"/>
  <path id="Path_603" data-name="Path 603" d="M110.244,70.3a2.593,2.593,0,0,1,.363,1.092c0,.386.181.707.181,1.092a2.316,2.316,0,0,1-.181,1.092,2.594,2.594,0,0,1-.363,1.092,2.594,2.594,0,0,1-.363-1.092c0-.386-.181-.707-.181-1.092a2.316,2.316,0,0,1,.181-1.092A2.594,2.594,0,0,1,110.244,70.3Z" transform="translate(89.194 -24.997)" fill="#fbfbfb"/>
  <path id="Path_604" data-name="Path 604" d="M175.363,76.409a17.9,17.9,0,0,1-.363-3.02V67.22a16.457,16.457,0,0,1,.363-3.02,17.9,17.9,0,0,1,.363,3.02v6.169A17.9,17.9,0,0,1,175.363,76.409Z" transform="translate(142.396 -22.817)" fill="#fbfbfb"/>
  <path id="Path_605" data-name="Path 605" d="M174.663,78.063a45.366,45.366,0,0,1-.363-4.948V63.348a45.374,45.374,0,0,1,.363-4.948,45.366,45.366,0,0,1,.363,4.948v9.767C174.844,74.786,174.844,76.457,174.663,78.063Z" transform="translate(141.825 -20.744)" fill="#fbfbfb"/>
  <path id="Path_606" data-name="Path 606" d="M173.863,79.175c-.181-2.056-.363-4.113-.363-6.169V60.669c0-2.056.181-4.113.363-6.169.181,2.056.363,4.113.363,6.169V73.007C174.226,75.063,174.044,77.119,173.863,79.175Z" transform="translate(141.173 -19.35)" fill="#fbfbfb"/>
  <path id="Path_607" data-name="Path 607" d="M173.063,80.516c-.181-2.57-.363-5.141-.363-7.647V57.447c0-2.57.181-5.141.363-7.647.181,2.57.363,5.141.363,7.647V72.869C173.426,75.375,173.244,77.945,173.063,80.516Z" transform="translate(140.522 -17.671)" fill="#fbfbfb"/>
  <path id="Path_608" data-name="Path 608" d="M172.363,78.819c-.181-1.928-.363-3.92-.363-5.848V61.148c0-1.928.182-3.92.363-5.848.181,1.928.363,3.92.363,5.848V72.971C172.544,74.963,172.544,76.891,172.363,78.819Z" transform="translate(139.951 -19.636)" fill="#fbfbfb"/>
  <path id="Path_609" data-name="Path 609" d="M171.563,77.265a30.5,30.5,0,0,1-.363-4.048V65.248a30.5,30.5,0,0,1,.363-4.048,30.5,30.5,0,0,1,.363,4.048v7.968A30.49,30.49,0,0,1,171.563,77.265Z" transform="translate(139.3 -21.745)" fill="#fbfbfb"/>
  <path id="Path_610" data-name="Path 610" d="M170.763,75.981a12.534,12.534,0,0,1-.363-2.57v-2.57a12.26,12.26,0,0,1,.181-2.57,12.534,12.534,0,0,1,.363-2.57,12.533,12.533,0,0,1,.363,2.57c0,.835.182,1.735.182,2.57v2.57A13.645,13.645,0,0,0,170.763,75.981Z" transform="translate(138.648 -23.353)" fill="#fbfbfb"/>
  <path id="Path_611" data-name="Path 611" d="M170.144,75.6a9.687,9.687,0,0,1-.363-2.249c0-.771-.181-1.478-.181-2.249a9.416,9.416,0,0,1,.181-2.249,9.691,9.691,0,0,1,.363-2.249,9.688,9.688,0,0,1,.363,2.249c0,.771.181,1.478.181,2.249a9.416,9.416,0,0,1-.181,2.249C170.326,74.118,170.326,74.889,170.144,75.6Z" transform="translate(137.996 -23.675)" fill="#fbfbfb"/>
  <path id="Path_612" data-name="Path 612" d="M169.263,76.894a24.183,24.183,0,0,1-.363-3.6V66.1a24.187,24.187,0,0,1,.363-3.6,24.179,24.179,0,0,1,.363,3.6v7.2A23.352,23.352,0,0,1,169.263,76.894Z" transform="translate(137.426 -22.21)" fill="#fbfbfb"/>
  <path id="Path_613" data-name="Path 613" d="M168.463,77.792a37.57,37.57,0,0,1-.363-4.5v-9a37.571,37.571,0,0,1,.363-4.5,37.556,37.556,0,0,1,.363,4.5v9A38.658,38.658,0,0,1,168.463,77.792Z" transform="translate(136.774 -21.245)" fill="#fbfbfb"/>
  <path id="Path_614" data-name="Path 614" d="M167.763,76.894a24.181,24.181,0,0,1-.363-3.6V66.1a24.187,24.187,0,0,1,.363-3.6,24.179,24.179,0,0,1,.363,3.6v7.2C167.944,74.516,167.944,75.737,167.763,76.894Z" transform="translate(136.204 -22.21)" fill="#fbfbfb"/>
  <path id="Path_615" data-name="Path 615" d="M167.044,75.6a9.69,9.69,0,0,1-.363-2.249c0-.771-.181-1.478-.181-2.249a9.415,9.415,0,0,1,.181-2.249,9.69,9.69,0,0,1,.363-2.249,9.687,9.687,0,0,1,.363,2.249c0,.771.181,1.478.181,2.249a9.415,9.415,0,0,1-.181,2.249A9.17,9.17,0,0,1,167.044,75.6Z" transform="translate(135.47 -23.675)" fill="#fbfbfb"/>
  <path id="Path_616" data-name="Path 616" d="M166.163,76.466a17.88,17.88,0,0,1-.363-3.149V67.149A19.393,19.393,0,0,1,166.163,64a17.878,17.878,0,0,1,.363,3.149v6.169A17.878,17.878,0,0,1,166.163,76.466Z" transform="translate(134.9 -22.746)" fill="#fbfbfb"/>
  <path id="Path_617" data-name="Path 617" d="M165.463,78.063a45.363,45.363,0,0,1-.363-4.948V63.348a45.37,45.37,0,0,1,.363-4.948,45.359,45.359,0,0,1,.363,4.948v9.767C165.644,74.786,165.644,76.457,165.463,78.063Z" transform="translate(134.33 -20.744)" fill="#fbfbfb"/>
  <path id="Path_618" data-name="Path 618" d="M164.663,79.732c-.181-2.249-.363-4.5-.363-6.683V59.683c0-2.249.181-4.5.363-6.683.182,2.249.363,4.5.363,6.683V73.049C165.026,75.234,164.844,77.483,164.663,79.732Z" transform="translate(133.678 -18.814)" fill="#fbfbfb"/>
  <path id="Path_619" data-name="Path 619" d="M163.863,81.9c-.181-3.02-.363-6.1-.363-9.125V54.525c0-3.02.181-6.1.363-9.125.182,3.02.363,6.1.363,9.125v18.25C164.226,75.795,164.044,78.815,163.863,81.9Z" transform="translate(133.026 -16.098)" fill="#fbfbfb"/>
  <path id="Path_620" data-name="Path 620" d="M163.163,82.74c-.181-3.406-.363-6.811-.363-10.217V52.217c0-3.406.181-6.811.363-10.217.182,3.406.363,6.811.363,10.217V72.523C163.344,75.929,163.344,79.334,163.163,82.74Z" transform="translate(132.456 -14.883)" fill="#fbfbfb"/>
  <path id="Path_621" data-name="Path 621" d="M162.363,83.752c-.181-3.791-.363-7.583-.363-11.438V49.438c0-3.791.181-7.583.363-11.438.182,3.791.363,7.583.363,11.438V72.314C162.726,76.17,162.544,79.961,162.363,83.752Z" transform="translate(131.804 -13.453)" fill="#fbfbfb"/>
  <path id="Path_622" data-name="Path 622" d="M161.563,85.107c-.181-4.305-.363-8.546-.363-12.852v-25.7c0-4.305.181-8.546.363-12.852.182,4.305.363,8.546.363,12.852v25.7C161.926,76.5,161.744,80.8,161.563,85.107Z" transform="translate(131.152 -11.916)" fill="#fbfbfb"/>
  <path id="Path_623" data-name="Path 623" d="M160.863,84.523c-.181-4.048-.363-8.1-.363-12.081V48.281c0-4.048.181-8.1.363-12.081.182,4.048.363,8.1.363,12.081V72.442C161.044,76.426,161.044,80.474,160.863,84.523Z" transform="translate(130.582 -12.81)" fill="#fbfbfb"/>
  <path id="Path_624" data-name="Path 624" d="M160.063,83.3c-.181-3.6-.363-7.133-.363-10.731V51.231c0-3.6.181-7.133.363-10.731.182,3.6.363,7.133.363,10.731V72.565C160.244,76.1,160.244,79.7,160.063,83.3Z" transform="translate(129.93 -14.347)" fill="#fbfbfb"/>
  <path id="Path_625" data-name="Path 625" d="M159.263,82.369c-.181-3.277-.363-6.49-.363-9.767V53.067c0-3.277.182-6.49.363-9.767.181,3.277.363,6.49.363,9.767V72.6C159.626,75.815,159.444,79.092,159.263,82.369Z" transform="translate(129.278 -15.347)" fill="#fbfbfb"/>
  <path id="Path_626" data-name="Path 626" d="M158.463,81.1c-.181-2.827-.363-5.591-.363-8.418V55.718c0-2.827.181-5.591.363-8.418.182,2.827.363,5.591.363,8.418V72.682C158.826,75.51,158.644,78.273,158.463,81.1Z" transform="translate(128.627 -16.777)" fill="#fbfbfb"/>
  <path id="Path_627" data-name="Path 627" d="M157.763,79.888c-.181-2.313-.363-4.627-.363-7V59c0-2.313.181-4.627.363-7,.182,2.313.363,4.627.363,7v13.88C157.944,75.262,157.944,77.575,157.763,79.888Z" transform="translate(128.056 -18.457)" fill="#fbfbfb"/>
  <path id="Path_628" data-name="Path 628" d="M156.963,78.063a45.366,45.366,0,0,1-.363-4.948V63.348a45.366,45.366,0,0,1,.363-4.948,45.359,45.359,0,0,1,.363,4.948v9.767A44.217,44.217,0,0,1,156.963,78.063Z" transform="translate(127.405 -20.744)" fill="#fbfbfb"/>
  <path id="Path_629" data-name="Path 629" d="M156.163,76.68A20.122,20.122,0,0,1,155.8,73.4V66.977a20.127,20.127,0,0,1,.363-3.277,20.122,20.122,0,0,1,.363,3.277V73.4A10.113,10.113,0,0,1,156.163,76.68Z" transform="translate(126.753 -22.639)" fill="#fbfbfb"/>
  <path id="Path_630" data-name="Path 630" d="M155.544,75.6a9.687,9.687,0,0,1-.363-2.249c0-.771-.181-1.478-.181-2.249a9.415,9.415,0,0,1,.181-2.249,9.69,9.69,0,0,1,.363-2.249,9.689,9.689,0,0,1,.363,2.249c0,.771.181,1.478.181,2.249a9.417,9.417,0,0,1-.181,2.249C155.726,74.118,155.726,74.889,155.544,75.6Z" transform="translate(126.101 -23.675)" fill="#fbfbfb"/>
  <path id="Path_631" data-name="Path 631" d="M154.744,75.055a4.07,4.07,0,0,1-.363-1.414c0-.45-.181-.964-.181-1.414a3.8,3.8,0,0,1,.181-1.414,4.071,4.071,0,0,1,.363-1.414,4.07,4.07,0,0,1,.363,1.414c0,.45.182.964.182,1.414a3.8,3.8,0,0,1-.182,1.414A4.46,4.46,0,0,1,154.744,75.055Z" transform="translate(125.449 -24.676)" fill="#fbfbfb"/>
  <path id="Path_632" data-name="Path 632" d="M153.944,75.6a9.687,9.687,0,0,1-.363-2.249c0-.771-.181-1.478-.181-2.249a9.415,9.415,0,0,1,.181-2.249,9.689,9.689,0,0,1,.363-2.249,9.689,9.689,0,0,1,.363,2.249c0,.771.182,1.478.182,2.249a9.414,9.414,0,0,1-.182,2.249A4.763,4.763,0,0,1,153.944,75.6Z" transform="translate(124.797 -23.675)" fill="#fbfbfb"/>
  <path id="Path_633" data-name="Path 633" d="M153.163,76.894a24.183,24.183,0,0,1-.363-3.6V66.1a24.187,24.187,0,0,1,.363-3.6,24.183,24.183,0,0,1,.363,3.6v7.2C153.344,74.516,153.344,75.737,153.163,76.894Z" transform="translate(124.309 -22.21)" fill="#fbfbfb"/>
  <path id="Path_634" data-name="Path 634" d="M152.363,77.792a37.558,37.558,0,0,1-.363-4.5v-9a37.568,37.568,0,0,1,.363-4.5,37.559,37.559,0,0,1,.363,4.5v9A38.654,38.654,0,0,1,152.363,77.792Z" transform="translate(123.657 -21.245)" fill="#fbfbfb"/>
</svg>
